<svg xmlns="http://www.w3.org/2000/svg" width="771.907" height="151.025"><g fill="#fff"><path d="M6.236 48.449l-6.236 2.435 1.723 35.014 4.514-1.635v-35.814zm27.145 29.667h-1.633c-1.467 0-2.664-.426-3.594-1.282-.792-.735-1.901-2.277-3.326-4.627l-4.722 5.079c2.137 2.91 3.206 4.948 3.206 6.117 0 2.099-2.107 4.653-6.325 7.663-3.128 2.236-6.177 3.987-9.146 5.257l5.049 3.473c3.82-1.485 7.088-3.503 9.8-6.058 3.267-3.068 5.049-6.356 5.346-9.86.713.792 1.851 1.188 3.416 1.188h1.93v-6.95zm4.157-28.212l-.801 3.267c2.83-1.307 7.81-3.137 14.937-5.494 2.475-.831 5.821-1.9 10.038-3.206l.416-3.445c-12.75 4.217-20.947 7.176-24.59 8.878zm-1.218 6.81c-.515.259-1.009 1.199-1.484 2.824-.396 1.328-.614 2.429-.654 3.3.417.991 2.624 3.082 6.623 6.272 3.604 2.873 5.405 5.033 5.405 6.479 0 1.07-.971 1.795-2.91 2.172-1.228.237-3.287.354-6.178.354h-5.315v6.95h5.078c4.594 0 7.988-.652 10.186-1.961 2.793-1.665 4.188-4.608 4.188-8.828 0-3.903-3.762-8.292-11.285-13.166-.495-.316-.376-.644.356-.98 2.652-1.209 6.008-2.349 10.067-3.419l10.424-2.556.891-6.687c-11.76 3.45-20.225 6.532-25.392 9.246zm86.51 21.402h-1.782c-1.623 0-2.622-.417-2.999-1.252-.178-.397-.268-1.562-.268-3.49v-1.969l-4.306 1.462v2.208c0 2.028-1.258 3.041-3.771 3.041-2.237 0-3.355-1.58-3.355-4.742v-1.969l-4.247 1.462v2.208c0 2.028-1.059 3.041-3.178 3.041-1.108 0-2.396-.804-3.86-2.415-1.148-1.273-2.089-2.655-2.822-4.147l-5.227 4.899c1.96 2.634 2.94 5.306 2.94 8.02 0 2.812-1 5.068-3 6.771-1.88 1.584-4.256 2.376-7.127 2.376-2.692 0-4.811-.673-6.355-2.02-1.604-1.426-2.404-3.475-2.404-6.146 0-1.545.544-3.723 1.633-6.534l-4.633-1.633c-1.644 3.285-2.465 6.445-2.465 9.474 0 3.78.96 6.878 2.88 9.296 2.376 3.009 5.96 4.514 10.751 4.514s8.691-1.604 11.7-4.812c2.931-3.149 4.396-7.128 4.396-11.939.574.833 1.771 1.248 3.594 1.248 2.198 0 4.079-1.049 5.643-3.149 1.088 2.101 2.751 3.149 4.989 3.149 2.376 0 4.197-1.049 5.465-3.149.653 1.061 1.325 1.811 2.019 2.25.931.6 2.188.899 3.771.899h2.02v-6.952zm-21.138-11.649l2.132-3.11 3.986 2.604 3.141-4.117-4.665-3.089-2.282 3.09-3.951-2.644-2.983 4.133 4.622 3.133zm2.001-6.952l2.967-4.017-4.292-2.892-3.052 4.031 4.377 2.878zm35.144 18.601h-2.019c-2.455 0-3.683-1.908-3.683-5.725v-1.491l-4.96 1.641v2.385c0 2.127-1.524 3.19-4.573 3.19h-2.436v6.95h2.673c3.247 0 5.613-1.049 7.098-3.149.91 2.101 2.792 3.149 5.643 3.149h2.257v-6.95zm-8.79-20.43l-3.929 5.267 5.368 3.582 3.96-5.21-5.399-3.639zm10.988-1.387c-.495.258-.98 1.258-1.456 3.002-.416 1.486-.643 2.666-.683 3.538.436.971 2.643 3.021 6.622 6.152 3.604 2.834 5.405 5.033 5.405 6.599 0 1.686-3.375 2.526-10.127 2.526h-4.276v6.95h4.099c4.91 0 8.483-.594 10.721-1.784 3.088-1.644 4.633-4.646 4.633-9.005 0-3.486-2.515-7.044-7.544-10.67-1.188-.851-2.435-1.733-3.741-2.645-.456-.316-.337-.634.356-.951 2.039-.911 6.078-2.169 12.116-3.774 3.029-.812 5.82-1.506 8.375-2.081l.891-7.103c-11.8 3.469-20.264 6.551-25.391 9.246zm34.806-7.85l-6.236 2.435 1.723 35.014 4.514-1.635v-35.814zm18.888 22.719c-1.505-2.891-3.771-4.336-6.8-4.336-2.061 0-3.762 1.336-5.108 4.01-1.069 2.119-1.604 4.127-1.604 6.028 0 4.097 2.139 6.146 6.415 6.146 1.465 0 2.761-.266 3.89-.801-.258 1.564-1.802 3.552-4.633 5.969-3.01 2.572-6.217 4.523-9.622 5.85l4.247 4.068c3.802-1.327 7.196-3.731 10.186-7.216 3.208-3.742 4.812-7.514 4.812-11.314 0-3.326-.594-6.129-1.783-8.404zm-6.236 6.118c-2.02 0-3.029-.603-3.029-1.812 0-.692.258-1.325.772-1.902.515-.573 1.108-.86 1.781-.86.911 0 1.693.445 2.347 1.335.595.794.931 1.663 1.01 2.613-.693.419-1.653.626-2.881.626zm54.665.83h-3.386c-3.188 0-6.188.604-8.999 1.811-3.622 1.561-5.434 3.714-5.434 6.459 0 1.916 1.445 3.221 4.336 3.915 3.267.373 5.137.592 5.612.65.594.079.892.229.892.445 0 .235-.347.493-1.04.771-2.276.928-5.741 1.392-10.394 1.392-6.692 0-10.038-2.534-10.038-7.603 0-.731.212-1.806.639-3.221.426-1.416.836-2.451 1.232-3.104l-4.633-1.633c-1.861 3.206-2.792 6.373-2.792 9.503 0 4.473 1.445 7.82 4.337 10.037 2.612 2.02 6.245 3.03 10.898 3.03 5.107 0 9.414-1.229 12.918-3.685 2.949-2.078 4.425-4.167 4.425-6.266 0-1.702-1.1-2.86-3.297-3.475-2.336-.336-4.444-.652-6.325-.95-.792-.117-1.188-.366-1.188-.741 0-.594.99-.893 2.97-.893.198 0 .594.023 1.188.064 4.118.294 6.236.441 6.355.441h1.723v-6.947zm28.717-8.255c-2.396 0-5.885-.732-10.468-2.197-4.584-1.466-7.895-2.198-9.934-2.198-2.555 0-4.732 2.169-6.534 6.505 1.208.692 2.713 1.394 4.515 2.106.376-.454.742-.92 1.099-1.396.515-.535 1.147-.801 1.901-.801.573 0 2.128.379 4.662 1.133 2.731.816 4.454 1.264 5.167 1.343-4.02 1.475-6.207 2.271-6.562 2.387-2.693.917-5.524 1.373-8.494 1.373h-5.762v6.95h5.851c4.118 0 7.651-.784 10.602-2.354 3.723-2.085 6.286-3.545 7.692-4.38 2.712-1.57 5.354-2.355 7.929-2.355l.802-6.235c-.813.079-1.635.119-2.466.119zm12.444-21.412l-6.236 2.435 1.723 35.014 4.514-1.635v-35.814zm27.146 29.667h-1.634c-1.465 0-2.663-.426-3.593-1.282-.793-.735-1.9-2.277-3.327-4.627l-4.722 5.079c2.139 2.91 3.207 4.948 3.207 6.117 0 2.099-2.108 4.653-6.324 7.663-3.13 2.236-6.179 3.987-9.148 5.257l5.05 3.473c3.82-1.485 7.087-3.503 9.8-6.058 3.267-3.068 5.049-6.356 5.345-9.86.714.792 1.852 1.188 3.416 1.188h1.931v-6.95zm24.426-11.341c-1.455-1.328-3.312-1.992-5.568-1.992-2.771 0-5.752 1.426-8.938 4.275v-20.609l-6.326 2.438c.713 7.017 1.069 12.922 1.069 17.718 0 3.111-.169 5.41-.506 6.896-.396 1.744-1.78 2.615-4.156 2.615h-1.693v6.95h10.098c4.909 0 9.037-1.011 12.384-3.034 3.88-2.34 5.819-5.64 5.819-9.903-.002-2.24-.728-4.025-2.183-5.354zm-7.588 10.537c-2.218.536-4.405.804-6.562.804h-2.94c2.494-2.443 3.85-3.758 4.067-3.938 2.237-1.848 4.257-2.773 6.059-2.773 2.831 0 4.247.847 4.247 2.536-.001 1.471-1.624 2.595-4.871 3.371zm56.328.804h-3.386c-3.188 0-6.188.604-8.999 1.811-3.623 1.561-5.434 3.714-5.434 6.459 0 1.916 1.444 3.221 4.336 3.915 3.267.373 5.137.592 5.612.65.594.079.891.229.891.445 0 .235-.346.493-1.039.771-2.276.928-5.742 1.392-10.395 1.392-6.692 0-10.037-2.534-10.037-7.603 0-.731.212-1.806.638-3.221.426-1.416.837-2.451 1.232-3.104l-4.633-1.633c-1.86 3.206-2.791 6.373-2.791 9.503 0 4.473 1.445 7.82 4.336 10.037 2.613 2.02 6.246 3.03 10.899 3.03 5.107 0 9.413-1.229 12.917-3.685 2.95-2.078 4.426-4.167 4.426-6.266 0-1.702-1.1-2.86-3.297-3.475-2.336-.336-4.444-.652-6.325-.95-.792-.117-1.188-.366-1.188-.741 0-.594.989-.893 2.97-.893.197 0 .594.023 1.188.064 4.117.294 6.236.441 6.355.441h1.723v-6.947zm40.596 0h-1.337c-2.099 0-3.247-.188-3.442-.565.929-1.606 1.395-3.432 1.395-5.476 0-2.242-.733-4.048-2.198-5.418-1.426-1.309-3.277-1.963-5.553-1.963-3.98 0-9.019 3.789-15.116 11.37-1.049 1.309-1.95 1.965-2.702 1.965-1.169 0-1.931-.448-2.287-1.343-.219-.537-.326-1.53-.326-2.982v-2.477l-4.663 1.312v2.059c0 2.346-1.276 3.519-3.831 3.519h-2.257v6.95h2.999c2.595 0 4.495-.911 5.702-2.732 1.169 1.821 3.436 2.732 6.801 2.732h6.859c4.89 0 8.642-1.1 11.255-3.296 1.645 2.196 3.96 3.296 6.95 3.296h1.752v-6.951zm-13.125-.871c-2.18.522-4.349.784-6.505.784h-2.94c2.118-2.188 3.455-3.513 4.011-3.975 2.197-1.825 4.205-2.737 6.026-2.737 2.832 0 4.248.852 4.248 2.557-.001 1.467-1.615 2.591-4.84 3.371zm53.722.871h-1.339c-2.097 0-3.247-.188-3.442-.565.93-1.606 1.395-3.432 1.395-5.476 0-2.242-.731-4.048-2.198-5.418-1.426-1.309-3.277-1.963-5.553-1.963-3.98 0-9.019 3.789-15.116 11.37-1.049 1.309-1.95 1.965-2.702 1.965-1.167 0-1.929-.448-2.287-1.343-.219-.537-.326-1.53-.326-2.982v-2.477l-4.663 1.312v2.059c0 2.346-1.276 3.519-3.832 3.519h-2.255v6.95h2.998c2.595 0 4.495-.911 5.702-2.732 1.169 1.821 3.436 2.732 6.801 2.732h6.862c4.887 0 8.64-1.1 11.253-3.296 1.644 2.196 3.959 3.296 6.949 3.296h1.754v-6.951zm-13.127-.871c-2.18.522-4.347.784-6.505.784h-2.938c2.118-2.188 3.455-3.513 4.009-3.975 2.197-1.825 4.205-2.737 6.028-2.737 2.83 0 4.246.852 4.246 2.557 0 1.467-1.613 2.591-4.84 3.371zm49.002.871h-5.763c-1.742 0-2.97-.318-3.683-.958-.375-.339-.664-.928-.861-1.767 1.742-.539 3.582-.809 5.524-.809l.802-6.741c-1.031.119-2.129.179-3.298.179-2.276 0-5.638-.524-10.08-1.575-4.446-1.048-7.797-1.573-10.054-1.573-2.455 0-4.633 2.366-6.534 7.099 1.109.632 2.604 1.336 4.486 2.106 1.048-1.621 1.998-2.434 2.851-2.434.336 0 1.562.189 3.681.567 2.336.416 3.892.665 4.663.744-2.931 1.571-4.959 2.667-6.089 3.283-2.395 1.252-5.105 1.878-8.136 1.878h-5.108v6.95h6.028c2.555 0 4.9-.498 7.039-1.489 1.444-.676 3.207-1.818 5.287-3.429 2.413-1.866 4.205-3.128 5.374-3.784.098 5.802 2.474 8.702 7.127 8.702h6.743v-6.949zm-16.393-26.281l-3.93 5.267 5.366 3.583 3.962-5.211-5.398-3.639zm23.073 13.75l-3.92 5.655 2.05 2.62c.911 1.171 1.367 2.074 1.367 2.71 0 1.031-1.041 1.546-3.119 1.546h-4.751v6.95h1.779c3.247 0 5.793-.792 7.633-2.38 1.98-1.704 2.972-4.153 2.972-7.346 0-3.826-1.339-7.078-4.011-9.755zm2.732-13.215l-2.376 3.325-4.246-2.939-3.262 4.418 5.081 3.468 2.344-3.325 4.077 2.879 3.266-4.423-4.884-3.403zm74.563 25.746h-1.782c-1.623 0-2.623-.417-3-1.252-.177-.397-.268-1.562-.268-3.49v-1.969l-4.307 1.462v2.208c0 2.028-1.256 3.041-3.771 3.041-2.235 0-3.355-1.58-3.355-4.742v-1.969l-4.247 1.462v2.208c0 2.028-1.06 3.041-3.177 3.041-1.108 0-2.396-.804-3.859-2.415-1.15-1.273-2.09-2.655-2.821-4.147l-5.227 4.899c1.959 2.634 2.938 5.306 2.938 8.02 0 2.812-.999 5.068-2.998 6.771-1.882 1.584-4.258 2.376-7.127 2.376-2.692 0-4.812-.673-6.354-2.02-1.604-1.426-2.406-3.475-2.406-6.146 0-1.545.543-3.723 1.633-6.534l-4.633-1.633c-1.642 3.285-2.464 6.445-2.464 9.474 0 3.78.96 6.878 2.881 9.296 2.376 3.009 5.958 4.514 10.75 4.514 4.791 0 8.69-1.604 11.699-4.812 2.931-3.149 4.397-7.128 4.397-11.939.573.833 1.771 1.248 3.592 1.248 2.196 0 4.078-1.049 5.644-3.149 1.088 2.101 2.751 3.149 4.989 3.149 2.376 0 4.197-1.049 5.464-3.149.652 1.061 1.326 1.811 2.018 2.25.932.6 2.189.899 3.773.899h2.02v-6.952zm-21.14-11.649l2.133-3.11 3.986 2.604 3.142-4.117-4.665-3.089-2.283 3.09-3.95-2.644-2.983 4.133 4.62 3.133zm2.003-6.952l2.966-4.017-4.291-2.892-3.053 4.031 4.378 2.878zm25.877 6.07l-3.92 5.655 2.05 2.62c.91 1.171 1.367 2.074 1.367 2.71 0 1.031-1.041 1.546-3.119 1.546h-4.751v6.95h1.779c3.247 0 5.793-.792 7.633-2.38 1.979-1.704 2.972-4.153 2.972-7.346 0-3.826-1.339-7.078-4.011-9.755zm2.88 23.407l-2.346 3.326-4.276-2.908-3.247 4.397 5.089 3.466 2.376-3.326 4.039 2.879 3.268-4.425-4.903-3.409zm21.77-10.876h-2.228c-2.909 0-4.364-1.821-4.364-5.468v-24.199l-6.059 2.437.654 20.925c.136 4.379.671 7.44 1.603 9.183 1.444 2.716 4.235 4.073 8.376 4.073h2.018v-6.951zm25.807 0h-1.87c-1.426 0-2.544-.298-3.356-.894l-3.95-4.262c-1.722-1.868-3.314-2.803-4.781-2.803-1.365 0-2.87.983-4.515 2.95-1.542 1.889-2.602 3.201-3.175 3.937-.733.715-2.189 1.071-4.367 1.071h-1.544v6.95h1.989c1.999 0 3.851-.694 5.555-2.078.692.613 1.949 1.384 3.771 2.315 2.257 1.148 4.027 1.724 5.315 1.724 1.404 0 2.454-1.556 3.146-4.663.496.802 1.357 1.461 2.585 1.981 1.13.481 2.208.721 3.237.721h1.959v-6.949zm-12.74 2.674c-1.702-.515-3.168-1.337-4.394-2.465.215-.535.604-1.099 1.158-1.693.634-.654 1.197-.979 1.693-.979.731 0 1.425.573 2.077 1.722.573 1.009.86 1.929.86 2.763.001.713-.463.929-1.394.652zm30.44-12.028c-2.99-3.048-6.445-5.869-10.363-8.463l-2.941 6.277 1.307.832c-2.909 2.479-4.365 5.018-4.365 7.615 0 1.607.356 2.639 1.069 3.093h-4.097v6.95h3.801c4.276 0 6.948-.366 8.018-1.1 1.9.932 3.266 1.594 4.099 1.989 1.74.812 3.038 1.219 3.889 1.219 3.663 0 5.494-2.752 5.494-8.256-.002-2.751-1.97-6.136-5.911-10.156zm.505 13.097c-.337 0-1.06-.317-2.168-.951-1.108-.633-1.772-1.108-1.989-1.425.553-.296 1.027-.892 1.426-1.782.375-.811.563-1.564.563-2.257v-.533c.667.513 1.354 1.246 2.059 2.196.808 1.069 1.228 1.94 1.268 2.613.078 1.426-.308 2.139-1.159 2.139zm-7.334-5.955c-.597.624-1.347.936-2.26.936-.75 0-1.425-.281-2.018-.847-.596-.563-.892-1.222-.892-1.975 0-.654.372-1.355 1.114-2.107.743-.753 1.44-1.13 2.093-1.13.694 0 1.343.297 1.946.892s.905 1.237.905 1.93c.002.912-.296 1.677-.888 2.301zm60.661 2.212h-2.492c-1.505 0-2.832-.804-3.98-2.415-.356-.496-1.1-1.88-2.227-4.147l-5.228 4.899c1.959 2.634 2.939 5.306 2.939 8.02 0 2.812-1.001 5.068-2.999 6.771-1.882 1.584-4.258 2.376-7.128 2.376-2.692 0-4.812-.673-6.354-2.02-1.604-1.426-2.405-3.475-2.405-6.146 0-1.545.543-3.723 1.633-6.534l-4.633-1.633c-1.643 3.285-2.465 6.445-2.465 9.474 0 3.78.96 6.878 2.881 9.296 2.376 3.009 5.959 4.514 10.75 4.514s8.69-1.604 11.7-4.812c2.93-3.149 4.396-7.128 4.396-11.939.592.833 1.931 1.248 4.009 1.248h1.603v-6.952zm-22.064-14.223l-3.926 5.233 5.356 3.602 3.924-5.234-5.354-3.601zm38.013 14.223h-2.02c-2.455 0-3.683-1.908-3.683-5.725v-1.491l-4.959 1.641v2.385c0 2.127-1.523 3.19-4.574 3.19h-2.435v6.95h2.672c3.247 0 5.613-1.049 7.098-3.149.912 2.101 2.792 3.149 5.644 3.149h2.257v-6.95zm-6.419 10.876l-2.343 3.326-4.275-2.908-3.248 4.397 5.089 3.466 2.376-3.326 4.038 2.879 3.27-4.425-4.907-3.409zm16.634-40.543l-6.059 2.438.743 22.236c.059 2.04-.179 3.368-.713 3.982-.594.675-1.91 1.011-3.95 1.011h-1.931v6.95h3.417c3.582 0 6.007-1.377 7.274-4.131.812-1.764 1.218-4.588 1.218-8.473v-24.013zm18.89 22.719c-1.505-2.891-3.771-4.336-6.802-4.336-2.059 0-3.762 1.336-5.107 4.01-1.069 2.119-1.603 4.127-1.603 6.028 0 4.097 2.138 6.146 6.414 6.146 1.464 0 2.761-.266 3.89-.801-.258 1.564-1.802 3.552-4.633 5.969-3.009 2.572-6.218 4.523-9.621 5.85l4.246 4.068c3.801-1.327 7.197-3.731 10.188-7.216 3.205-3.742 4.81-7.514 4.81-11.314-.001-3.326-.594-6.129-1.782-8.404zm-6.237 6.118c-2.018 0-3.028-.603-3.028-1.812 0-.692.256-1.325.771-1.902.515-.573 1.108-.86 1.781-.86.911 0 1.693.445 2.346 1.335.596.794.932 1.663 1.011 2.613-.695.419-1.654.626-2.881.626zm18.027-28.837l-6.235 2.435 1.722 35.014 4.514-1.635v-35.814zm-755.829 91.563l-4.593-7.337c2.268-.364 4.452-2.184 4.452-5.489 0-3.471-2.437-5.853-6.133-5.853h-8.205v18.679h3.277v-6.973h3.276l4.116 6.973h3.81zm-6.692-9.858h-4.509v-5.938h4.509c1.848 0 3.191 1.15 3.191 2.941 0 1.822-1.344 2.997-3.191 2.997zm30.461 9.858v-2.885h-9.521v-5.208h9.325v-2.885h-9.325v-4.818h9.521v-2.883h-12.798v18.679h12.798zm17.607.335c5.013 0 7.226-2.688 7.226-5.796 0-6.944-10.865-4.787-10.865-8.289 0-1.372 1.232-2.324 3.137-2.324 1.96 0 3.948.671 5.433 2.156l1.848-2.436c-1.708-1.682-4.088-2.633-6.973-2.633-4.116 0-6.805 2.38-6.805 5.487 0 6.861 10.865 4.426 10.865 8.348 0 1.26-1.036 2.575-3.725 2.575-2.604 0-4.648-1.232-5.909-2.605l-1.848 2.549c1.679 1.737 4.173 2.968 7.616 2.968zm21.333-.335v-7.001h4.957c3.893 0 6.077-2.661 6.077-5.825 0-3.191-2.156-5.853-6.077-5.853h-8.233v18.679h3.276zm4.509-9.887h-4.509v-5.909h4.509c1.848 0 3.164 1.177 3.164 2.97 0 1.763-1.317 2.939-3.164 2.939zm25.841 10.222c5.572 0 9.549-4.088 9.549-9.659 0-5.574-3.977-9.662-9.549-9.662-5.601 0-9.549 4.088-9.549 9.662 0 5.571 3.948 9.659 9.549 9.659zm0-2.911c-3.781 0-6.188-2.913-6.188-6.748 0-3.865 2.407-6.75 6.188-6.75 3.753 0 6.189 2.885 6.189 6.75 0 3.834-2.437 6.748-6.189 6.748zm36.706 2.576v-18.679h-3.277v12.938l-9.549-12.938h-3.36v18.679h3.275v-13.357l9.746 13.357h3.165zm18.222.335c5.013 0 7.225-2.688 7.225-5.796 0-6.944-10.866-4.787-10.866-8.289 0-1.372 1.232-2.324 3.137-2.324 1.96 0 3.948.671 5.434 2.156l1.848-2.436c-1.708-1.682-4.089-2.633-6.973-2.633-4.116 0-6.805 2.38-6.805 5.487 0 6.861 10.865 4.426 10.865 8.348 0 1.26-1.036 2.575-3.725 2.575-2.604 0-4.648-1.232-5.908-2.605l-1.849 2.549c1.681 1.737 4.172 2.968 7.617 2.968zm21.332-.335v-18.679h-3.276v18.679h3.276zm21.307 0l7.337-18.679h-3.725l-5.656 15.094-5.656-15.094h-3.726l7.337 18.679h4.089zm29.984 0v-2.885h-9.521v-5.208h9.325v-2.885h-9.325v-4.818h9.521v-2.883h-12.797v18.679h12.797zm44.04 0l5.349-18.679h-3.668l-3.641 14.366-3.864-14.366h-2.604l-3.865 14.366-3.64-14.366h-3.641l5.32 18.679h3.501l3.64-13.807 3.613 13.807h3.5zm28.136 0v-2.885h-9.521v-5.208h9.325v-2.885h-9.325v-4.818h9.521v-2.883h-12.798v18.679h12.798zm20.632 0c3.529 0 5.434-2.157 5.434-5.068 0-2.269-1.597-4.256-3.612-4.565 1.735-.363 3.247-1.961 3.247-4.284 0-2.632-1.876-4.761-5.319-4.761h-9.186v18.679h9.436zm-.896-10.978h-5.265v-4.818h5.265c1.652 0 2.604 1.037 2.604 2.41.001 1.429-.951 2.408-2.604 2.408zm.14 8.093h-5.404v-5.208h5.404c1.848 0 2.828 1.204 2.828 2.604 0 1.623-1.064 2.604-2.828 2.604zm39.363 2.885c5.824 0 9.744-3.836 9.744-9.354 0-5.461-3.92-9.324-9.772-9.324h-6.945v18.679h6.973zm-.028-2.885h-3.669v-12.911h3.697c4.144 0 6.384 2.858 6.384 6.441 0 3.558-2.351 6.47-6.412 6.47zm33.569 2.885v-2.885h-9.522v-5.208h9.326v-2.885h-9.326v-4.818h9.522v-2.883h-12.799v18.679h12.799zm17.608.335c5.014 0 7.225-2.688 7.225-5.796 0-6.944-10.864-4.787-10.864-8.289 0-1.372 1.231-2.324 3.136-2.324 1.959 0 3.948.671 5.433 2.156l1.848-2.436c-1.708-1.682-4.088-2.633-6.973-2.633-4.116 0-6.804 2.38-6.804 5.487 0 6.861 10.865 4.426 10.865 8.348 0 1.26-1.037 2.575-3.727 2.575-2.602 0-4.647-1.232-5.907-2.605l-1.85 2.549c1.681 1.737 4.174 2.968 7.618 2.968zm21.333-.335v-18.679h-3.277v18.679h3.277zm20.801.363c3.221 0 5.853-1.37 7.675-3.416v-6.973h-8.85v2.885h5.601v2.883c-.839.812-2.521 1.682-4.426 1.682-3.695 0-6.438-2.856-6.438-6.748 0-3.948 2.743-6.75 6.438-6.75 2.074 0 3.839 1.094 4.846 2.492l2.661-1.54c-1.484-2.129-3.863-3.864-7.507-3.864-5.43 0-9.801 3.779-9.801 9.662 0 5.85 4.371 9.687 9.801 9.687zm35.111-.363v-18.679h-3.277v12.938l-9.549-12.938h-3.361v18.679h3.276v-13.357l9.745 13.357h3.166zm35.861.335c3.752 0 6.075-1.987 7.504-4.227l-2.8-1.401c-.896 1.54-2.717 2.717-4.704 2.717-3.696 0-6.441-2.856-6.441-6.748 0-3.948 2.745-6.75 6.441-6.75 1.987 0 3.809 1.148 4.704 2.717l2.773-1.458c-1.373-2.239-3.726-4.171-7.478-4.171-5.518 0-9.802 3.893-9.802 9.662.001 5.739 4.286 9.659 9.803 9.659zm26.68 0c5.574 0 9.549-4.088 9.549-9.659 0-5.574-3.975-9.662-9.549-9.662-5.6 0-9.548 4.088-9.548 9.662 0 5.571 3.948 9.659 9.548 9.659zm0-2.911c-3.78 0-6.188-2.913-6.188-6.748 0-3.865 2.408-6.75 6.188-6.75 3.753 0 6.188 2.885 6.188 6.75 0 3.834-2.435 6.748-6.188 6.748zm36.704 2.576v-18.679h-3.274v12.938l-9.551-12.938h-3.36v18.679h3.277v-13.357l9.744 13.357h3.164zm15.089 0v-8.093h9.325v-2.885h-9.325v-4.818h9.521v-2.883h-12.799v18.679h3.278zm33.121 0v-2.885h-9.522v-5.208h9.326v-2.885h-9.326v-4.818h9.522v-2.883h-12.797v18.679h12.797zm25.674 0l-4.594-7.337c2.269-.364 4.454-2.184 4.454-5.489 0-3.471-2.437-5.853-6.134-5.853h-8.204v18.679h3.275v-6.973h3.277l4.116 6.973h3.81zm-6.695-9.858h-4.508v-5.938h4.508c1.849 0 3.194 1.15 3.194 2.941.001 1.822-1.345 2.997-3.194 2.997zm30.463 9.858v-2.885h-9.521v-5.208h9.326v-2.885h-9.326v-4.818h9.521v-2.883h-12.799v18.679h12.799zm27.381 0v-18.679h-3.275v12.938l-9.551-12.938h-3.359v18.679h3.274v-13.357l9.747 13.357h3.164zm20.799.335c3.753 0 6.077-1.987 7.505-4.227l-2.8-1.401c-.896 1.54-2.718 2.717-4.705 2.717-3.695 0-6.44-2.856-6.44-6.748 0-3.948 2.745-6.75 6.44-6.75 1.987 0 3.809 1.148 4.705 2.717l2.773-1.458c-1.373-2.239-3.726-4.171-7.479-4.171-5.517 0-9.801 3.893-9.801 9.662.001 5.739 4.285 9.659 9.802 9.659zm30.742-.335v-2.885h-9.522v-5.208h9.326v-2.885h-9.326v-4.818h9.522v-2.883h-12.799v18.679h12.799z"/><path opacity=".6" fill-rule="evenodd" clip-rule="evenodd" d="M.907 113.025v-2h771v2h-771"/><path opacity=".6" fill-rule="evenodd" clip-rule="evenodd" d="M.907 151.025v-2h771v2h-771"/></g><path d="M201.836 13.422c-.255-.255-.561-.382-.917-.382-.347 0-.65.13-.909.389-.261.261-.391.564-.391.91 0 .357.13.663.391.917.259.255.567.382.924.382.346 0 .647-.129.902-.39.255-.259.383-.563.383-.91 0-.356-.128-.661-.383-.916zm0 3.914c-.255-.255-.561-.383-.917-.383-.347 0-.65.13-.909.39-.261.26-.391.563-.391.91 0 .355.13.661.391.917.259.256.567.383.924.383.346 0 .647-.13.902-.391.255-.26.383-.563.383-.909 0-.357-.128-.662-.383-.917zm17.899.7h-1.039c-.828 0-1.479-.338-1.949-1.013-.289-.414-.593-1.137-.91-2.169l-1.949-6.277-2.354 2.138 1.979 5.631c.066.193.101.376.101.55 0 1.02-1.141 1.53-3.423 1.53-1.512 0-2.667-.303-3.465-.909l-1.026 2.715c.886 1.05 2.276 1.575 4.174 1.575 2.377 0 3.961-.919 4.751-2.759.799 1.579 2.171 2.368 4.115 2.368h.996v-3.38zm7.77 0h-.982c-1.193 0-1.79-.928-1.79-2.784v-.726l-2.411.798v1.16c0 1.035-.742 1.552-2.225 1.552h-1.184v3.379h1.3c1.578 0 2.729-.51 3.45-1.531.443 1.021 1.357 1.531 2.744 1.531h1.098v-3.379zm-4.275-9.935l-1.91 2.562 2.61 1.742 1.925-2.534-2.625-1.77zm5.343-.674c-.241.125-.476.611-.708 1.46-.201.723-.312 1.295-.332 1.72.213.472 1.286 1.47 3.22 2.992 1.753 1.378 2.63 2.448 2.63 3.209 0 .819-1.643 1.229-4.925 1.229h-2.08v3.379h1.993c2.387 0 4.125-.289 5.213-.868 1.503-.799 2.252-2.258 2.252-4.378 0-1.696-1.222-3.426-3.666-5.188-.578-.415-1.186-.844-1.82-1.287-.222-.153-.164-.308.173-.462.992-.443 2.956-1.055 5.892-1.835 1.474-.395 2.83-.732 4.073-1.012l.434-3.454c-5.74 1.685-9.855 3.184-12.349 4.495zm30.427 10.609h-1.646c-1.549 0-3.008.292-4.376.879-1.761.759-2.642 1.807-2.642 3.143 0 .931.703 1.565 2.108 1.902 1.588.182 2.498.287 2.729.317.289.038.434.109.434.216 0 .114-.17.24-.506.375-1.107.451-2.792.677-5.055.677-3.254 0-4.881-1.231-4.881-3.697 0-.356.104-.878.311-1.566s.406-1.192.6-1.509l-2.253-.795c-.905 1.56-1.358 3.101-1.358 4.622 0 2.175.703 3.802 2.109 4.881 1.271.981 3.037 1.473 5.3 1.473 2.483 0 4.578-.597 6.282-1.791 1.434-1.011 2.15-2.026 2.15-3.046 0-.829-.533-1.392-1.603-1.69-1.136-.164-2.162-.317-3.076-.462-.385-.058-.577-.178-.577-.361 0-.289.48-.433 1.444-.433l.577.03c2.003.144 3.032.215 3.09.215h.839v-3.38zm9.286-3.235c-.549-1.376-1.396-2.064-2.542-2.064-.934 0-1.811.55-2.628 1.65l-1.3 2.259c-.529.927-1.56 1.391-3.09 1.391h-.549v3.379h.62c1.686 0 3.038-.654 4.059-1.964.308.299.827.616 1.56.953.914.424 1.757.635 2.526.635.481 0 .93-.375 1.344-1.126.375-.683.562-1.337.562-1.964.001-1.156-.187-2.205-.562-3.149zm-1.748 3.163c-.097 0-.212-.02-.347-.058-.809-.231-1.497-.549-2.064-.953.26-1.011.684-1.517 1.271-1.517.414 0 .78.265 1.098.795.27.452.403.904.403 1.357-.001.251-.12.376-.361.376zm17.524-2.787c-.28-.635-.79-1.42-1.531-2.354l-2.238 2.613 1.17 1.56c.385.539.577 1.059.577 1.56 0 1.059-1.05 2.354-3.147 3.885-1.415 1.03-2.922 1.935-4.52 2.715l2.295 1.776c1.926-.761 3.635-1.839 5.126-3.235 1.888-1.762 2.831-3.596 2.831-5.501-.001-1.166-.188-2.172-.563-3.019zm5.43-11.567l-3.033 1.183.838 17.026 2.195-.794v-17.415zm13.198 14.426h-.794c-.713 0-1.295-.208-1.748-.625-.385-.358-.924-1.107-1.617-2.25l-2.296 2.47c1.04 1.415 1.56 2.407 1.56 2.975 0 1.021-1.025 2.263-3.076 3.726-1.521 1.088-3.003 1.94-4.447 2.557l2.455 1.688c1.858-.722 3.446-1.703 4.765-2.945 1.589-1.492 2.455-3.091 2.6-4.794.347.385.9.578 1.661.578h.938v-3.38zm-6.729-9.848l-1.91 2.562 2.61 1.742 1.913-2.542-2.613-1.762zm8.78-3.871l-.39 1.588c1.376-.635 3.797-1.526 7.263-2.672 1.203-.403 2.83-.923 4.881-1.559l.202-1.674c-6.199 2.05-10.184 3.49-11.956 4.317zm-.592 3.312c-.251.125-.491.583-.723 1.373-.192.646-.299 1.18-.317 1.604.202.482 1.274 1.498 3.22 3.049 1.752 1.397 2.628 2.448 2.628 3.151 0 .521-.472.872-1.415 1.056-.597.115-1.598.173-3.004.173h-2.584v3.379h2.469c2.234 0 3.885-.318 4.954-.954 1.357-.809 2.035-2.24 2.035-4.292 0-1.898-1.829-4.032-5.487-6.402-.24-.155-.184-.314.174-.477 1.289-.588 2.922-1.142 4.896-1.662l5.068-1.243.433-3.251c-5.719 1.678-9.834 3.175-12.347 4.496zm25.589 10.407h-.794c-.713 0-1.296-.208-1.748-.625-.385-.358-.924-1.107-1.617-2.25l-2.296 2.47c1.04 1.415 1.56 2.407 1.56 2.975 0 1.021-1.025 2.263-3.076 3.726-1.521 1.088-3.004 1.94-4.447 2.557l2.455 1.688c1.857-.722 3.446-1.703 4.765-2.945 1.589-1.492 2.455-3.091 2.6-4.794.347.385.9.578 1.661.578h.938v-3.38zm3.249-6.094l-1.906 2.751.996 1.273c.443.569.664 1.008.664 1.317 0 .502-.505.753-1.516.753h-2.311v3.379h.867c1.578 0 2.814-.385 3.71-1.157.964-.829 1.444-2.02 1.444-3.572.002-1.861-.648-3.442-1.948-4.744zm-.33 11.93l-1.918 2.557 2.608 1.744 1.909-2.545-2.599-1.756zm28.626-12.363l-1.906 2.744c.982 1.242 1.473 2.037 1.473 2.382 0 .453-.866.92-2.599 1.401-1.869.52-3.861.78-5.979.78h-1.791c-2.493 0-4.207-.294-5.141-.881-.627-.395-.939-1.001-.939-1.82 0-.395.213-1.054.636-1.978l-2.18-.678c-.742 1.473-1.113 2.715-1.113 3.726 0 3.349 2.859 5.024 8.578 5.024 8.578 0 12.867-2.055 12.867-6.166 0-1.723-.635-3.234-1.906-4.534zm-9.694 12.929l-1.909 2.546 2.621 1.752 1.908-2.545-2.62-1.753zm20.785-9.781c-.731-1.405-1.834-2.108-3.307-2.108-1.002 0-1.83.65-2.484 1.95-.52 1.03-.779 2.007-.779 2.931 0 1.993 1.04 2.99 3.119 2.99.712 0 1.343-.13 1.891-.39-.124.761-.876 1.728-2.252 2.902-1.463 1.252-3.022 2.2-4.679 2.846l2.065 1.979c1.848-.646 3.498-1.815 4.952-3.51 1.56-1.819 2.34-3.653 2.34-5.501 0-1.621-.289-2.982-.866-4.089zm-3.033 2.975c-.981 0-1.473-.294-1.473-.881 0-.337.125-.645.375-.925.25-.279.539-.418.867-.418.442 0 .823.217 1.141.649.289.385.452.81.491 1.271-.338.203-.804.304-1.401.304zm25.19-6.281c-1.637 0-3.139.692-4.505 2.078-1.367 1.386-2.05 2.903-2.05 4.549 0 1.262.673 2.027 2.021 2.297 2.079.173 3.351.284 3.812.332.354.039.533.192.533.462 0 .164-.087.332-.259.506-.761.76-1.912 1.343-3.451 1.747-1.107.289-2.1.434-2.974.434-3.361 0-5.042-1.224-5.042-3.668 0-1.087.318-2.132.953-3.133l-2.339-.794c-.935 1.607-1.4 3.182-1.4 4.723 0 4.167 2.474 6.252 7.423 6.252 2.444 0 4.571-.641 6.382-1.92 1.944-1.378 2.918-3.11 2.918-5.199 0-1.454-1.008-2.263-3.02-2.426-1.529-.125-2.392-.217-2.585-.275-.259-.077-.391-.241-.391-.491 0-.452.309-.914.925-1.386.692-.53 1.483-.793 2.37-.793 1.077 0 1.896.119 2.453.36l.766-2.902c-.767-.503-1.615-.753-2.54-.753zm10.486 6.685h-1.084c-1.414 0-2.123-.887-2.123-2.66v-11.766l-2.944 1.184.317 10.175c.067 2.129.328 3.617.778 4.465.705 1.32 2.062 1.98 4.073 1.98h.982v-3.378zm8.592-4.548c-1.454-1.483-3.136-2.855-5.04-4.116l-1.43 3.052.636.404c-1.417 1.206-2.124 2.44-2.124 3.703 0 .782.174 1.283.521 1.505h-1.992v3.379h1.849c2.079 0 3.378-.178 3.897-.534.925.452 1.588.774 1.994.967.847.394 1.478.592 1.893.592 1.78 0 2.669-1.338 2.669-4.015-.001-1.337-.957-2.984-2.873-4.937zm.245 6.367c-.163 0-.516-.154-1.054-.462-.539-.308-.862-.539-.968-.693.271-.145.502-.433.693-.866.184-.395.274-.761.274-1.098v-.26c.323.25.658.606 1.002 1.068.391.52.596.944.616 1.271.038.694-.148 1.04-.563 1.04zm-3.568-2.895c-.286.303-.652.454-1.095.454-.367 0-.693-.137-.984-.412-.287-.273-.432-.593-.432-.96 0-.317.181-.659.539-1.025.362-.366.701-.548 1.021-.548.336 0 .65.143.943.432.295.289.442.603.442.939.001.444-.143.817-.434 1.12zm12.898-7.806l-1.314 3.236c1.301.683 2.402 1.487 3.309 2.411.809.828 1.211 1.492 1.211 1.993 0 .751-.538 1.237-1.617 1.459-.423.087-1.241.129-2.454.129-.973 0-1.877-.346-2.715-1.04l-1.387 2.557c.942 1.222 2.521 1.833 4.736 1.833 1.655 0 2.98-.41 3.97-1.227 1.07-.876 1.605-2.128 1.605-3.755-.001-2.897-1.783-5.43-5.344-7.596zm15.84 6.023c-.279-.635-.789-1.42-1.529-2.354l-2.239 2.613 1.171 1.56c.383.539.578 1.059.578 1.56 0 1.059-1.052 2.354-3.149 3.885-1.416 1.03-2.922 1.935-4.52 2.715l2.295 1.776c1.926-.761 3.635-1.839 5.127-3.235 1.888-1.762 2.83-3.596 2.83-5.501 0-1.166-.187-2.172-.564-3.019zm5.43-11.567l-3.031 1.183.836 17.026 2.195-.794v-17.415zm15.829 14.426h-1.04c-.828 0-1.478-.338-1.95-1.013-.288-.414-.591-1.137-.908-2.169l-1.95-6.277-2.354 2.138 1.978 5.631c.067.193.102.376.102.55 0 1.02-1.142 1.53-3.422 1.53-1.512 0-2.667-.303-3.468-.909l-1.023 2.715c.884 1.05 2.276 1.575 4.173 1.575 2.378 0 3.961-.919 4.75-2.759.801 1.579 2.171 2.368 4.117 2.368h.996v-3.38zm3.265-6.094l-1.908 2.751.996 1.273c.443.569.665 1.008.665 1.317 0 .502-.506.753-1.516.753h-2.311v3.379h.866c1.577 0 2.816-.385 3.711-1.157.962-.829 1.443-2.02 1.443-3.572.001-1.861-.647-3.442-1.946-4.744zm-.753-6.425l-1.908 2.544 2.605 1.75 1.908-2.545-2.605-1.749zm10.672 12.519h-1.082c-1.416 0-2.123-.887-2.123-2.66v-11.766l-2.945 1.184.318 10.175c.067 2.129.327 3.617.778 4.465.703 1.32 2.062 1.98 4.074 1.98h.979v-3.378zm7.74 0h-.98c-1.194 0-1.792-.928-1.792-2.784v-.726l-2.41.798v1.16c0 1.035-.741 1.552-2.225 1.552h-1.184v3.379h1.301c1.577 0 2.729-.51 3.449-1.531.442 1.021 1.359 1.531 2.745 1.531h1.096v-3.379zm-2.974-10.426l-1.142 1.617-2.079-1.43-1.592 2.157 2.486 1.665 1.152-1.609 1.969 1.396 1.585-2.15-2.379-1.646zm17.387 4.967l-2.064 2.317c.664.608.996 1.284.996 2.026 0 .802-.424 1.202-1.271 1.202-.625 0-1.132-.227-1.518-.681-.366-.425-.548-.957-.548-1.595v-1.479l-2.109.638v1.159c0 1.247-.689 1.871-2.063 1.871-.53 0-.937-.28-1.215-.842-.22-.444-.331-.962-.331-1.552v-.914l-2.065.682v.871c0 .532-.175.957-.527 1.275-.351.32-.797.479-1.335.479h-1.186v3.379h.896c.607 0 1.209-.131 1.805-.394.655-.282 1.126-.661 1.416-1.137.578 1.021 1.558 1.531 2.944 1.531 1.107 0 1.956-.51 2.542-1.531.692 1.04 1.806 1.56 3.338 1.56 1.105 0 2.016-.543 2.729-1.632.615-.943.924-2.001.924-3.177 0-1.711-.454-3.064-1.358-4.056zm6.194-8.967l-3.032 1.183.837 17.026 2.195-.794v-17.415zm18.03 14.411h-.952c-.713 0-1.194-.101-1.445-.303-.347-.279-.616-.89-.809-1.834l-1.588-7.87-2.157 2.23.283 1.264c-3.199 1.906-4.797 3.842-4.797 5.806 0 .761.287 1.342.864 1.748.511.366 1.16.549 1.95.549 1.607 0 2.763-.342 3.466-1.026.241.915.54 1.565.895 1.949.435.472 1.104.756 2.008.853.184.02.944.029 2.282.029v-3.395zm-7.497-1.53c-.845 0-1.269-.141-1.269-.419 0-.433.341-.894 1.021-1.385.538-.385 1.052-.649 1.542-.793l.494 2.223c-.269.249-.864.374-1.788.374zm21.91-3.914l-2.067 2.317c.665.608.998 1.284.998 2.026 0 .802-.425 1.202-1.271 1.202-.627 0-1.131-.227-1.516-.681-.366-.425-.55-.957-.55-1.595v-1.479l-2.107.638v1.159c0 1.247-.688 1.871-2.065 1.871-.529 0-.934-.28-1.213-.842-.223-.444-.332-.962-.332-1.552v-.914l-2.066.682v.871c0 .532-.175.957-.525 1.275-.353.32-.797.479-1.337.479h-1.185v3.379h.896c.605 0 1.207-.131 1.805-.394.655-.282 1.127-.661 1.416-1.137.577 1.021 1.56 1.531 2.945 1.531 1.107 0 1.954-.51 2.542-1.531.693 1.04 1.805 1.56 3.334 1.56 1.107 0 2.018-.543 2.73-1.632.616-.943.925-2.001.925-3.177-.001-1.711-.453-3.064-1.357-4.056zm11.839 2.6c-.278-.635-.788-1.42-1.529-2.354l-2.239 2.613 1.172 1.56c.384.539.577 1.059.577 1.56 0 1.059-1.05 2.354-3.148 3.885-1.417 1.03-2.923 1.935-4.52 2.715l2.294 1.776c1.927-.761 3.636-1.839 5.127-3.235 1.889-1.762 2.833-3.596 2.833-5.501-.001-1.166-.19-2.172-.567-3.019zm16.421 2.859h-1.04c-.828 0-1.478-.338-1.948-1.013-.29-.414-.593-1.137-.912-2.169l-1.947-6.277-2.354 2.138 1.979 5.631c.065.193.1.376.1.55 0 1.02-1.139 1.53-3.422 1.53-1.512 0-2.667-.303-3.466-.909l-1.025 2.715c.886 1.05 2.276 1.575 4.173 1.575 2.378 0 3.961-.919 4.752-2.759.797 1.579 2.171 2.368 4.115 2.368h.996v-3.38zm9.299-3.235c-.548-1.376-1.396-2.064-2.542-2.064-.934 0-1.811.55-2.627 1.65l-1.301 2.259c-.529.927-1.56 1.391-3.089 1.391h-.55v3.379h.621c1.686 0 3.035-.654 4.058-1.964.309.299.826.616 1.56.953.914.424 1.757.635 2.527.635.48 0 .929-.375 1.343-1.126.376-.683.563-1.337.563-1.964.001-1.156-.187-2.205-.563-3.149zm-1.747 3.163c-.096 0-.211-.02-.347-.058-.809-.231-1.498-.549-2.065-.953.261-1.011.684-1.517 1.271-1.517.415 0 .779.265 1.098.795.271.452.404.904.404 1.357 0 .251-.121.376-.361.376z" fill="#fff"/></svg>