<svg xmlns="http://www.w3.org/2000/svg" width="250" height="110.628" viewBox="-103.181 -17.785 250 110.628" enable-background="new -103.181 -17.785 250 110.628"><g fill="#fff"><path d="M-103.181 87.489c0 2.951 2.403 5.354 5.356 5.354h100.205c2.955 0 5.356-2.403 5.356-5.354v-5.058h-110.917v5.058zM-4.608 23.497c0-2.462-2.001-4.466-4.466-4.466h-77.302c-2.458 0-4.463 2.004-4.463 4.466v54.542h86.229v-54.542h.002zm-8.614 4.151v41.775h-68.999v-41.775h68.999zM47.211 75.762l-.394-1.799h-22.583l-.392 1.799c-1.052 4.833-3.27 9.459-6.418 13.367l-2.991 3.715h42.193l-2.997-3.715c-3.147-3.903-5.365-8.525-6.418-13.367zM142.923 52.109h-16.301c-2.15 0-3.896 1.751-3.896 3.899v32.935c0 2.147 1.749 3.897 3.896 3.897h16.301c2.147 0 3.896-1.75 3.896-3.897v-32.93c0-2.153-1.749-3.904-3.896-3.904zm-11.418 2.507h6.536c.472 0 .853.382.853.856s-.381.85-.853.85h-6.536c-.473 0-.854-.375-.854-.85s.381-.856.854-.856zm3.267 35.922c-.862 0-1.559-.703-1.559-1.562 0-.86.696-1.562 1.559-1.562.865 0 1.561.701 1.561 1.562 0 .859-.695 1.562-1.561 1.562zm8.699-5.374h-17.397v-26.423h17.397v26.423zM112.86 21.917h-47.065c-2.464 0-4.466 2.004-4.466 4.467v61.998c0 2.46 2.002 4.462 4.466 4.462h47.065c2.461 0 4.467-2.002 4.467-4.462v-61.998c-.006-2.463-2.009-4.467-4.467-4.467zm-23.533 68.477c-1.012 0-1.837-.822-1.837-1.841 0-1.011.822-1.835 1.837-1.835 1.014 0 1.838.82 1.838 1.835-.001 1.018-.824 1.841-1.838 1.841zm19.38-6.168h-38.758v-53.692h38.752v53.691h.006zM-18.098-9.165h109.498v26.686h8.618v-30.838c0-2.463-2.003-4.468-4.471-4.468h-117.797c-2.462 0-4.463 2.005-4.463 4.468v27.954h8.615v-23.802z"/><rect x="-.212" y="60.955" width="57.147" height="8.616"/></g></svg>