<?xml version="1.0" encoding="utf-8"?>
<!-- Generator: Adobe Illustrator 16.0.0, SVG Export Plug-In . SVG Version: 6.00 Build 0)  -->
<!DOCTYPE svg PUBLIC "-//W3C//DTD SVG 1.1//EN" "http://www.w3.org/Graphics/SVG/1.1/DTD/svg11.dtd">
<svg version="1.1" id="Layer_1" xmlns="http://www.w3.org/2000/svg" xmlns:xlink="http://www.w3.org/1999/xlink" x="0px" y="0px"
	 width="1194.531px" height="330.633px" viewBox="0 0 1194.531 330.633" enable-background="new 0 0 1194.531 330.633"
	 xml:space="preserve">
<path fill-rule="evenodd" clip-rule="evenodd" stroke="#000000" stroke-width="0.5" stroke-miterlimit="2.6131" d="M542.447,71.336
	c10.399,7.794,17.042,13.64,19.93,17.536c2.889,3.897,2.167,5.846-2.166,5.846c-2.166,0-5.199-0.472-9.099-1.357
	c-3.899-0.945-8.666-2.362-14.298-4.311c-7.077-2.539-13.937-6.082-20.508-10.511c-6.499-4.428-12.348-9.388-17.547-14.82
	s-9.315-10.924-12.348-16.415c-3.033-5.491-4.549-10.628-4.622-15.293c0-9.447,3.25-16.887,9.893-22.261
	c6.571-5.432,16.537-8.502,29.968-9.27c3.25-0.296,8.304-0.296,15.092-0.06c6.788,0.236,14.875,0.886,24.263,2.008
	c9.315,1.062,19.497,2.834,30.401,5.137c8.737,2.008,17.258,3.72,25.49,5.137c8.304,1.477,16.03,2.717,23.253,3.779
	c7.148,1.004,13.43,1.949,18.846,2.775c7.697,1.259,15.553,1.771,23.396,1.771c22.742,0,20.939-14.729,28.309,12.931
	c1.588,5.964,2.455,11.691,2.455,17.183c0.072,3.13-0.361,6.259-1.373,9.507c-0.938,3.247-2.816,5.964-5.561,8.207
	c-2.814,2.126-6.064,3.543-9.82,4.251c-3.682,0.709-7.943,0.709-12.709,0c-3.467-0.531-6.932-1.062-10.471-1.652
	c-3.611-0.649-7.293-1.358-11.193-2.244c-8.232-1.83-16.391-3.602-24.623-5.491c-8.16-1.83-15.67-3.483-22.531-4.96
	c-6.86-1.535-12.348-2.598-16.536-3.365c-3.827-0.709-8.088-1.417-12.854-2.008c-4.693-0.649-9.459-1.24-14.298-1.713
	c-4.91-0.472-9.532-0.886-13.937-1.181c-4.332-0.236-8.16-0.413-11.337-0.413c-4.333,0.059-8.016,0.473-11.121,1.299
	c-3.033,0.768-5.56,1.653-7.51,2.599c0.506,1.83,2.094,4.31,4.838,7.38C534.793,64.427,538.259,67.733,542.447,71.336
	L542.447,71.336z"/>
<path fill-rule="evenodd" clip-rule="evenodd" stroke="#000000" stroke-width="0.5" stroke-miterlimit="2.6131" d="
	M1121.572,237.771l-36.992-83.339c-0.566-1.134-0.85-1.984-0.85-2.551c0-3.402,2.41-5.103,7.229-5.103
	c6.236,0,10.488,2.692,12.756,8.078l36.141,80.788c1.984,4.535,2.977,8.646,2.977,12.33c0,3.969-1.699,5.953-5.102,5.953
	C1131.777,253.929,1126.393,248.543,1121.572,237.771L1121.572,237.771z M986.785,215.661c7.371,16.157,23.244,30.897,47.623,44.221
	c23.244,13.039,44.787,19.559,64.629,19.559c9.072,0,14.316-4.252,15.732-12.756c10.205,9.071,21.686,13.606,34.441,13.606
	c30.047,0,45.07-10.205,45.07-30.614c0-10.771-3.826-24.803-11.48-42.095l-5.953-13.181c-8.787-19.843-20.268-36.284-34.439-49.323
	c-17.008-15.591-34.867-23.386-53.576-23.386c-76.385,0-46.756,69.122-30.188,106.299c1.133,2.552,1.699,4.819,1.699,6.804
	c0,3.685-2.125,5.527-6.377,5.527c-8.504,0-18.922-4.535-31.252-13.606c-12.33-9.07-20.48-17.716-24.449-25.937L986.785,215.661
	L986.785,215.661z"/>
<path fill-rule="evenodd" clip-rule="evenodd" stroke="#000000" stroke-width="0.5" stroke-miterlimit="2.6131" d="M856.592,216.337
	c7.086,16.157,23.244,31.039,48.473,44.646c23.244,12.473,43.229,18.709,59.953,18.709h32.314c30.613,0,45.92-10.063,45.92-30.189
	c0-10.488-3.967-24.378-11.904-41.669l-13.607-30.614c-6.803-15.308-16.016-28.063-27.637-38.268
	c-13.039-11.339-27.07-17.008-42.094-17.008h-42.096c-18.141,0-26.16,7.125-27.213,21.26c-1.877,25.189,78.648,64.97,54.426,11.48
	c-0.283-1.134-0.426-1.984-0.426-2.552c0-3.401,2.41-5.103,7.229-5.103c5.953,0,10.062,2.693,12.332,8.079l36.141,80.787
	c1.984,4.536,2.977,8.504,2.977,11.906c0,4.252-1.701,6.378-5.102,6.378h-12.332c-27.213,0-53.148-8.079-77.811-24.236
	c-14.457-9.638-23.953-19.276-28.488-28.914l-11.055,14.882V216.337L856.592,216.337z"/>
<path fill-rule="evenodd" clip-rule="evenodd" stroke="#000000" stroke-width="0.5" stroke-miterlimit="2.6131" d="M699.092,215.944
	c7.088,15.591,22.82,30.188,47.197,43.795c23.244,13.039,44.787,19.56,64.631,19.56c9.07,0,14.314-4.252,15.732-12.756
	c10.488,9.07,21.969,13.605,34.439,13.605c30.332,0,45.496-10.204,45.496-30.613c0-10.488-3.967-24.521-11.904-42.095
	c-11.906-26.788-23.811-53.575-35.717-80.362c-85.576,0-45.58,22.638-7.229,108.425c1.984,4.536,2.977,8.646,2.977,12.331
	c0,3.969-1.701,5.952-5.104,5.952c-5.951,0-11.195-5.386-15.73-16.157c-16.219-36.93-32.436-73.86-48.654-110.79
	c-78.93-0.175-45.275,18.583-14.701,101.011c1.135,2.551,1.701,4.819,1.701,6.803c0,3.686-2.127,5.528-6.379,5.528
	C747.285,240.181,685.131,186.052,699.092,215.944L699.092,215.944z"/>
<path fill-rule="evenodd" clip-rule="evenodd" stroke="#000000" stroke-width="0.5" stroke-miterlimit="2.6131" d="M372.775,259.739
	c23.244,13.039,44.788,19.56,64.63,19.56c9.071,0,14.315-4.252,15.732-12.756c10.488,9.07,21.968,13.605,34.441,13.605
	c30.331,0,45.496-10.204,45.496-30.613c0-10.488-4.074-24.474-11.906-42.095c-20.703-46.581-41.405-93.162-62.108-139.744
	c-96.414,0-21.856,75.863,19.163,167.807c2.017,4.521,2.977,8.646,2.977,12.331c0,3.969-1.701,5.952-5.103,5.952
	c-5.953,0-10.99-5.475-15.732-16.157c-25.41-56.86-50.819-113.721-76.229-170.58c-98.878,1.467-30.021,64.866,12.875,160.801
	c1.139,2.548,1.701,4.819,1.701,6.803c0,3.686-2.126,5.528-6.378,5.528c-8.221,0-18.567-4.536-31.04-13.606
	C289.16,174.115,333.694,237.927,372.775,259.739L372.775,259.739z"/>
<path fill-rule="evenodd" clip-rule="evenodd" stroke="#000000" stroke-width="0.5" stroke-miterlimit="2.6131" d="M524.818,270.062
	c24.516,12.21,85.194,19.911,85.194-20.527c0-10.488-4.074-24.474-11.906-42.095c-11.905-26.788-23.811-53.575-35.716-80.362
	c-85.575,0-45.58,22.638-7.229,108.425c2.021,4.52,2.977,8.646,2.977,12.331c0,3.969-1.701,5.952-5.103,5.952
	c-3.012,0-23.568-6.276-26.217-9.035L524.818,270.062L524.818,270.062z"/>
<path fill-rule="evenodd" clip-rule="evenodd" stroke="#000000" stroke-width="0.5" stroke-miterlimit="2.6131" d="M0.269,217.013
	c29.259,64.369,242.106,83.314,247.559,50.598c10.488,9.071,21.969,13.606,34.441,13.606c30.331,0,45.496-10.204,45.496-30.614
	c0-10.488-3.969-24.52-11.906-42.094c-11.906-27.261-23.811-54.521-35.716-81.78c-85.816,0-45.286,23.601-7.229,109.843
	c1.984,4.535,2.977,8.646,2.977,12.331c0,3.968-1.701,5.952-5.103,5.952c-5.953,0-11.197-5.386-15.732-16.157
	c-16.778-37.532-33.556-75.063-50.334-112.596c-86.813,0.222-51.833,15.079-13.021,102.816c1.134,2.551,1.701,4.818,1.701,6.803
	c0,3.686-2.387,4.062-6.378,5.527C123.293,264.648-1.531,192.329,0.269,217.013L0.269,217.013z"/>
<path fill-rule="evenodd" clip-rule="evenodd" stroke="#000000" stroke-width="0.5" stroke-miterlimit="2.6131" d="M615.662,67.355
	c-93.553,0-15.74,84.554,23.426,173.074c0.617,1.396,0.85,2.835,0.85,4.252c0,7.37-4.453,14.529-10.629,11.055
	c-24.535-13.8-26.693,24.236,27.637,24.236c13.607,0,23.387-0.992,29.34-2.977c7.938-2.834,11.904-8.078,11.904-15.731
	c0-5.387-1.76-12.367-5.527-20.835C666.996,182.738,641.328,125.047,615.662,67.355L615.662,67.355z"/>
<path fill-rule="evenodd" clip-rule="evenodd" stroke="#000000" stroke-width="0.5" stroke-miterlimit="2.6131" d="M823.775,310.257
	c2.268,5.669,6.449,10.204,12.545,13.605c6.094,3.402,11.975,5.103,17.645,5.103c10.488,0,15.732-3.968,15.732-11.905
	c0-1.984-0.566-4.252-1.701-6.803c-2.268-5.386-6.52-9.851-12.756-13.395c-6.236-3.543-12.188-5.314-17.857-5.314
	c-10.205,0-15.307,3.969-15.307,11.905C822.076,305.721,822.643,307.988,823.775,310.257L823.775,310.257z"/>
<path fill-rule="evenodd" clip-rule="evenodd" stroke="#000000" stroke-width="0.5" stroke-miterlimit="2.6131" d="M865.02,310.257
	c2.553,5.669,6.875,10.204,12.969,13.605c6.096,3.402,11.977,5.103,17.646,5.103c10.488,0,15.732-3.968,15.732-11.905
	c0-1.984-0.566-4.252-1.701-6.803c-2.551-5.67-6.803-10.205-12.756-13.606s-11.906-5.103-17.857-5.103
	c-10.205,0-15.309,3.969-15.309,11.905C863.744,305.721,864.17,307.988,865.02,310.257L865.02,310.257z"/>
<path fill-rule="evenodd" clip-rule="evenodd" stroke="#000000" stroke-width="0.5" stroke-miterlimit="2.6131" d="M970.307,311.674
	c2.551,5.669,6.875,10.205,12.969,13.606s11.977,5.103,17.646,5.103c10.488,0,15.732-3.969,15.732-11.906
	c0-1.983-0.568-4.252-1.701-6.803c-2.551-5.669-6.803-10.205-12.756-13.606s-11.906-5.103-17.859-5.103
	c-10.205,0-15.307,3.969-15.307,11.906C969.031,307.139,969.457,309.406,970.307,311.674L970.307,311.674z"/>
<path fill-rule="evenodd" clip-rule="evenodd" stroke="#000000" stroke-width="0.5" stroke-miterlimit="2.6131" d="M78.836,184.06
	c2.551,5.669,6.874,10.205,12.968,13.606s11.977,5.103,17.646,5.103c10.488,0,15.732-3.969,15.732-11.906
	c0-1.984-0.567-4.252-1.701-6.803c-2.551-5.669-6.803-10.205-12.756-13.606c-5.953-3.401-11.906-5.103-17.858-5.103
	c-10.205,0-15.307,3.969-15.307,11.905C77.561,179.524,77.986,181.792,78.836,184.06L78.836,184.06z"/>
<path fill-rule="evenodd" clip-rule="evenodd" stroke="#000000" stroke-width="0.5" stroke-miterlimit="2.6131" d="M497.246,103.55
	c2.551,5.669,6.874,10.205,12.969,13.606c6.094,3.401,11.977,5.103,17.646,5.103c10.488,0,15.732-3.969,15.732-11.906
	c0-1.983-0.567-4.252-1.701-6.803c-2.551-5.669-6.803-10.205-12.756-13.606s-11.906-5.103-17.858-5.103
	c-10.205,0-15.307,3.969-15.307,11.906C495.97,99.015,496.396,101.282,497.246,103.55L497.246,103.55z"/>
<path fill-rule="evenodd" clip-rule="evenodd" stroke="#000000" stroke-width="0.5" stroke-miterlimit="2.6131" d="M252.9,310.257
	c2.268,5.669,6.449,10.204,12.543,13.605c6.094,3.402,11.976,5.103,17.646,5.103c10.488,0,15.732-3.968,15.732-11.905
	c0-1.984-0.567-4.252-1.701-6.803c-2.268-5.386-6.52-9.851-12.756-13.395c-6.236-3.543-12.189-5.314-17.858-5.314
	c-10.205,0-15.307,3.969-15.307,11.905C251.199,305.721,251.766,307.988,252.9,310.257L252.9,310.257z"/>
<path fill-rule="evenodd" clip-rule="evenodd" stroke="#000000" stroke-width="0.5" stroke-miterlimit="2.6131" d="M294.144,310.257
	c2.551,5.669,6.874,10.204,12.968,13.605c6.095,3.402,11.977,5.103,17.646,5.103c10.488,0,15.732-3.968,15.732-11.905
	c0-1.984-0.567-4.252-1.701-6.803c-2.551-5.67-6.803-10.205-12.756-13.606s-11.905-5.103-17.858-5.103
	c-10.205,0-15.307,3.969-15.307,11.905C292.869,305.721,293.293,307.988,294.144,310.257L294.144,310.257z"/>
</svg>
