<svg xmlns="http://www.w3.org/2000/svg" width="479.339" height="139.492"><path fill="#235C3C" d="M11.892 53.861v19.02c0 3.3-2.662 5.976-5.945 5.976-3.285-.001-5.947-2.676-5.947-5.976v-21.858999999999998s1.568-3.267 5.946-2.875l52.599-.032s7.318-.751 10.455 4.476l11.369 22.085s0 8.494-10.716 1.699l-10.323-19.081s-.916-3.337-4.575-3.433h-10.846v19.02c0 3.3-2.575 5.976-5.75 5.976-3.176 0-5.75-2.676-5.75-5.976v-19.02"/><path fill="#235C3C" d="M145.448 71.167c0 4.331-3.51 7.842-7.841 7.842h-43.516c-4.331 0-7.841-3.511-7.841-7.842v-15.25c0-4.331 3.51-7.841 7.841-7.841h43.517c4.331 0 7.841 3.51 7.841 7.841v15.25zm-11.631-15.049c0-1.299-1.053-2.352-2.352-2.352h-31.755c-1.299 0-2.353 1.053-2.353 2.352v15.16c0 1.299 1.054 2.352 2.353 2.352h31.755c1.299 0 2.352-1.053 2.352-2.352v-15.16z"/><path fill="#EF1866" d="M164.397 47.002"/><path fill="#EF1866" d="M164.397 53.815"/><path fill="#235C3C" d="M164.511 47.002s.164.687 1.781.687l24.062.343s7.841.392 11.712 6.665l9.998 17.249s1.323 6.028-6.91 7.204l-46.13-.142s-4.509-.005-5.733-2.848v-35.201c0-3.031 2.457-5.489 5.488-5.489h.13c3.031 0 5.489 2.458 5.489 5.489v6.043m.391 25.386c0 .326.523.654.523.654h34.5c.719-.262 0-1.046 0-1.046l-8.495-14.685c-1.895-3.12-6.272-3.496-6.272-3.496h-20.256v18.573z"/><path fill="#235C3C" d="M229.737 53.472c0-3.031-2.457-5.489-5.488-5.489h-.098c-3.031 0-5.489 2.458-5.489 5.489v20.19c0 3.031 2.458 5.488 5.489 5.488h.098c3.031 0 5.488-2.457 5.488-5.488v-20.19z"/><path fill="#235C3C" d="M230.326 34.066c0-.866-.703-1.568-1.568-1.568h-8.527c-.866 0-1.568.702-1.568 1.568v7.252c0 .866.702 1.568 1.568 1.568h8.527c.865 0 1.568-.702 1.568-1.568v-7.252z"/><path fill="#235C3C" d="M249.732 53.913v19.75c0 3.031-2.457 5.488-5.488 5.488h-.1c-3.031 0-5.488-2.457-5.488-5.488v-23.130000000000003c0-.785 1.373-2.352 3.921-2.549 2.548-.196 33.227 0 33.227 0s6.174-.784 9.017 3.039c2.842 3.823 11.859 22.052 11.859 22.052s2.939 5.595-3.726 6.077c-1.861.136-5.686-1.081-7.645-4.999-2.194-4.391-9.311-18.524-9.311-18.524s-1.078-1.519-2.843-1.617c-1.763-.099-23.423-.099-23.423-.099z"/><path fill="#235C3C" d="M313.243 53.913v19.749c0 3.033-2.457 5.488-5.488 5.488h-.099c-3.031 0-5.488-2.456-5.488-5.488v-23.130000000000003c0-.784 1.372-2.352 3.92-2.548 2.549-.196 33.227 0 33.227 0s6.175-.784 9.017 3.039c2.843 3.822 11.859 22.052 11.859 22.052s2.94 5.595-3.725 6.077c-1.862.136-5.687-1.081-7.645-4.999-2.195-4.39-9.312-18.523-9.312-18.523s-1.078-1.519-2.843-1.617c-1.763-.1-23.423-.1-23.423-.1z"/><path fill="#EF1866" d="M446.93 53.385"/><path fill="#235C3C" d="M447.062 53.385h-18.819c-1.515 0-2.743-1.229-2.743-2.745 0-1.515 1.229-2.744 2.743-2.744h48.352c1.516 0 2.745 1.229 2.745 2.744 0 1.516-1.229 2.745-2.745 2.745h-18.295v20.287c0 3.031-2.457 5.487-5.488 5.487h-.261c-3.031 0-5.488-2.456-5.488-5.487v-20.287z"/><path fill="#EF1866" d="M458.299 53.385"/><path fill="#EF1866" d="M458.299 53.385"/><path fill="#EF1866" d="M447.062 53.385"/><path fill="#EF1866" d="M458.299 53.385"/><path fill="#EF1866" d="M447.062 53.385"/><path fill="#235C3C" d="M365.189 76.21v-25.875c0-.515 1.273-2.231 4.115-2.439 2.843-.208 46.556 0 46.556 0s7.842.283 5.488 6.359c-2.352 6.077-6.664 11.663-6.664 11.663s-2.646 3.823-9.997 3.823l-27.149.294s-.882 0-.882.556c0 .555.065 1.862.065 1.862s-.195.556.556.556c.75 0 35.97-.033 35.97-.033s4.168-.13 4.148 3.234c-.016 2.867-3.169 2.646-3.169 2.646s-43.336.064-44.496.064-4.541-.782-4.541-2.71zm12.088-12.186h23.979c2.026 0 3.593-1.764 3.593-1.764s4.379-7.123 4.312-7.71c-.064-.588-.783-.653-.783-.653h-30.776c-.522 0-.719.523-.719.523v9.109c.001.418.394.495.394.495z"/><path fill="#8EC920" d="M349.469 94.016h29.534s9.408 1.177 12.284 5.75c2.875 4.573 10.062 17.382 10.062 17.382s2.222 5.487-6.012 7.447c-8.232 1.961-191.056.522-191.056.522s-6.888-.489-6.496-7.448l11.369-19.015s3.626-4.279 12.448-4.639h20.582s2.842.915 2.842 3.365l-2.45 2.843-19.896.587s-2.353.099-4.019 2.353l-8.919 15.191 65.472.359v-18.033c0-3.464 2.49-6.271 5.561-6.271h.117c3.07 0 5.561 2.808 5.561 6.271v18.034h15.159v-18.034c0-3.464 2.49-6.271 5.562-6.271h.115c3.071 0 5.562 2.808 5.562 6.271v18.034h15.551v-18.034c0-3.464 2.49-6.271 5.562-6.271h.116c3.07 0 5.561 2.808 5.561 6.271v18.034l16.236.132s2.352.686 0-2.941c-2.353-3.626-10.291-17.936-10.291-17.936s-1.35-3.105 3.883-3.953zm20.522 24.535h18.72s1.078-.294 0-1.764l-7.547-12.448s-1.372-3.332-6.174-3.528c-4.803-.195-15.094 0-15.094 0s-.392.589 0 .98l10.095 16.76z"/><circle fill="#8EC920" cx="254.959" cy="97.021" r="3.66"/><circle fill="#8EC920" cx="321.868" cy="135.833" r="3.659"/><circle fill="#8EC920" cx="170.017" cy="97.021" r="3.66"/><path fill="#8EC920" d="M286.871 135.834c0 1.66 1.345 3.005 3.005 3.005h14.897c1.661 0 3.007-1.345 3.007-3.005s-1.346-3.006-3.007-3.006h-14.897c-1.66 0-3.005 1.346-3.005 3.006z"/><path fill="#8EC920" d="M189.362 121.852v-21.169c0-3.465-2.49-6.273-5.561-6.273h-.116c-3.071 0-5.562 2.809-5.562 6.273v18.033h-16.728v-18.033c0-3.465-2.49-6.273-5.562-6.273h-.116c-3.071 0-5.562 2.809-5.562 6.273v18.033l-60.379-.358s7.252-12.938 8.918-15.191c1.667-2.254 4.019-2.354 4.019-2.354l35.121-.587s2.45-.392 2.45-2.843c0-2.45-2.842-3.366-2.842-3.366h-35.807c-8.821.36-12.448 4.64-12.448 4.64l-11.369 19.015c-.392 6.959 6.496 7.449 6.496 7.449s49.309-.045 101.643-.001c1.636 0 3.405-1.308 3.405-3.268z"/><path fill="#8EC920" d="M248.262 23.252c0-12.842-10.838-23.252-24.209-23.252-13.37 0-24.208 10.41-24.208 23.252 0 5.393 1.917 10.353 5.125 14.298l.097-.078c-2.038-3.2-3.213-6.96-3.213-10.985 0-11.646 9.83-21.087 21.954-21.087 12.125 0 21.954 9.441 21.954 21.087 0 4.895-1.74 9.397-4.654 12.975v.275c4.413-4.212 7.154-10.038 7.154-16.485z"/><path fill="#8EC920" d="M240.525 39.161c1.777-2.809 2.805-6.111 2.805-9.646 0-10.207-8.543-18.481-19.081-18.481-10.537 0-19.079 8.275-19.079 18.481 0 3.616 1.076 6.987 2.93 9.835-.542-1.754-.839-3.624-.839-5.568 0-9.918 7.622-17.959 17.021-17.959 9.401 0 17.021 8.041 17.021 17.959 0 1.873-.273 3.68-.778 5.379z"/><path fill="#EF1866" d="M235.776 42.379l.069-.107-.027-.037-.042.144z"/><path fill="#8EC920" d="M224.413 21.619c-7.561 0-13.689 5.967-13.689 13.329 0 2.468.701 4.772 1.902 6.755-.309-1.137-.484-2.334-.484-3.577 0-7.123 5.446-12.897 12.164-12.897s12.164 5.774 12.164 12.897c0 1.44-.24 2.817-.651 4.11l.027.037c1.425-2.103 2.257-4.618 2.257-7.325-.001-7.362-6.131-13.329-13.69-13.329z"/></svg>