<svg xmlns="http://www.w3.org/2000/svg" width="313.2" height="309.16" viewBox="5.14 1.04 313.2 309.16" enable-background="new 5.14 1.04 313.2 309.16"><path fill="#F6C745" d="M147.73 19.69c5.78-5.33 9.71-12.16 14.01-18.65 5.16 8.87 11.15 17.49 19.15 24.03 3.46 2.65 7.33 4.68 11.04 6.94 2.96 2.1 6.71.88 10.05.96 5.73-.08 11.48-.5 17.03-2.02 7.43-1.84 14.09-5.73 20.81-9.24.42 11.6.61 23.81 6.31 34.28 1.94 3.29 3.73 6.71 6.06 9.74 3.5 2.32 7.43 3.9 11.08 5.99 10.43 5.57 22.59 6.15 34.17 6.24-3.47 6.74-7.58 13.21-9.82 20.5-2.56 7.55-2.51 15.65-2.15 23.52 4.32 7.28 8.51 14.9 14.94 20.6 5.19 5.31 11.93 8.59 17.93 12.84-7.63 4.44-15.19 9.26-21.47 15.52-4.88 4.69-7.59 11.01-11.49 16.45-10.59 15.02-27.63 24.7-45.41 28.51-5.94 1.43-12.05 1.77-18.12 2.25 1.89-6.24 3.67-12.6 3.79-19.17.27-5.36-.86-10.62-1.65-15.88 5.89-1.84 11.56-4.3 16.98-7.23-4.84-7.76-10.73-14.81-17.65-20.79 6.18-6.65 12.34-13.36 17.53-20.83-8.05-4.56-16.87-7.49-25.8-9.74 2.81-8.51 4.59-17.44 4.2-26.43-9.06.13-18.14 1.36-26.72 4.33-2.2-8.78-5.24-17.36-9.74-25.23-7.74 4.41-14.57 10.22-20.74 16.62-6.38-6.58-13.68-12.32-21.87-16.48-4.39 7.82-7.4 16.3-9.21 25.08-8.75-3-17.97-4.4-27.21-4.33.34 9 2.43 17.78 4.82 26.43-8.99 1.94-17.73 5.01-25.72 9.6 4.48 8 10.75 14.79 17.48 20.94-6.71 6.06-13.07 12.78-17.26 20.86 5.64 3.65 12.14 5.56 18.44 7.72-2.51 11.43-1.53 23.4 2.36 34.42-16.66-.01-33.47-4.29-47.52-13.38-6.76-3.99-12.18-9.78-17.2-15.72-3.95-4.9-6.34-10.84-10.39-15.66-6.2-8.09-15.12-13.33-23.63-18.62 9.56-5.91 19.8-11.72 26.19-21.28 2.19-3.45 4.54-6.86 6.23-10.59.26-8.62.26-17.47-2.53-25.75-1.94-7-5.64-13.29-9.14-19.59 8.41 0 16.88-.43 25.1-2.27 6.51-1.45 12.31-4.87 18.04-8.13 1.57-.74 2.39-2.31 3.21-3.75 2.92-5.28 6.19-10.45 7.9-16.29 2.79-8.3 3.09-17.14 3.18-25.81 8.59 5.01 17.63 9.69 27.53 11.38 5.63 1.05 11.38.85 17.08.86 6.76-4.33 14.18-7.86 19.8-13.75z"/><path fill="#fff" d="M161.68 13.54c5.77 8.44 12.92 16.04 21.8 21.25-7.73 2.75-15.32 5.93-22.23 10.39-6.86-4.82-14.8-7.59-22.6-10.45 9.32-5.03 16.84-12.7 23.03-21.19z"/><path fill="#fff" d="M89.74 32.32c9.37 4.65 19.67 7.53 30.18 7.58-5.89 5.73-10.6 12.55-14.21 19.91-8.47-.69-16.93.57-25.2 2.29 5.23-9.09 8.58-19.29 9.23-29.78z"/><path fill="#fff" d="M202.77 39.61c10.64.09 21.19-2.43 30.81-6.88.67 10.15 3.06 20.32 8.37 29.09-8.13-1.77-16.47-2.59-24.79-2.09-3.72-7.42-8.76-14.05-14.39-20.12z"/><path fill="#fff" d="M113.1 60.51c4.3-7.77 9.95-14.72 16.9-20.27 8.98 1.36 17.49 4.81 25.39 9.23-6.58 5.62-12.74 11.81-17.45 19.12-7.91-3.72-16.26-6.39-24.84-8.08z"/><path fill="#fff" d="M167.35 49.47c7.65-4.46 15.98-7.74 24.7-9.39 7.41 5.36 13.1 12.64 17.85 20.38-8.49 1.93-16.93 4.22-24.8 8.03-5-7.14-10.81-13.7-17.75-19.02z"/><path fill="#fff" d="M160.52 54.5c1.01-.99 2.13.37 2.99.87 6.03 4.51 10.93 10.31 15.24 16.44-6.07 3.77-11.88 8-16.94 13.07-5.29-5.16-11.45-9.28-17.7-13.17 4.74-6.36 10.04-12.42 16.41-17.21z"/><path fill="#fff" d="M76.79 70.95c8.07-3.57 17.02-4.27 25.75-4.34-2.89 8.02-4.59 16.45-5.25 24.95-8.76.89-17.42 2.71-25.71 5.7-.09-7.72.8-15.49 3.03-22.9.48-1.24.84-2.81 2.18-3.41z"/><path fill="#fff" d="M220.17 66.4c8.98.08 18.01 1.07 26.49 4.19 3.34 8.43 4.94 17.44 4.7 26.5-8.17-3.02-16.73-4.93-25.44-5.47-.72-8.65-2.66-17.11-5.75-25.22z"/><path fill="#fff" d="M104.29 91.46c.81-8.29 2.5-16.52 5.61-24.28 8.39 1.16 16.53 3.73 24.23 7.22-3.35 6.39-6.29 13.02-8.16 20.01-7.09-1.83-14.37-2.75-21.68-2.95z"/><path fill="#fff" d="M189 74.36c7.64-3.45 15.69-6.08 24.03-7.16 3.02 7.77 5.29 15.88 5.78 24.24-7.36-.13-14.55 1.45-21.76 2.66-2.33-6.72-4.91-13.35-8.05-19.74z"/><path fill="#fff" d="M37.08 83.79c10.32-.56 20.68-2.83 29.75-7.91-1.8 7.93-2.56 16.08-1.94 24.2-7.61 3.68-14.5 8.67-20.59 14.51.15-10.69-2.75-21.16-7.22-30.8z"/><path fill="#fff" d="M255.84 75.33c9.24 5.36 19.72 8.1 30.28 9.15-4.46 9.13-7.42 19.11-7.46 29.34-6.15-5.47-13-10.12-20.31-13.9.46-8.28-.54-16.56-2.51-24.59z"/><path fill="#fff" d="M72.51 104.79c7.47-4.15 16.25-5.11 24.61-6.13.08 7.21 1.23 14.33 2.89 21.33-7.04 1.84-13.72 4.77-20.13 8.17-3.66-7.34-6.23-15.24-7.37-23.37z"/><path fill="#fff" d="M226.08 98.52c8.36 1.03 17.18 2.12 24.64 6.22-1.06 8.11-3.85 15.89-7.15 23.34-6.48-3.29-13.27-5.87-20.11-8.3 2-6.91 2.27-14.12 2.62-21.26z"/><path fill="#fff" d="M45.27 124.23c5.28-7.21 12.88-12.31 20.38-16.96 1.86 8.45 4.16 16.87 8.2 24.58-7.14 4.92-13.55 10.81-19.45 17.15-4.34-7.63-8.87-15.8-9.13-24.77z"/><path fill="#fff" d="M249.6 131.82c3.68-7.85 6.29-16.13 7.99-24.62 7.61 4.58 15.1 9.72 20.79 16.63-1.53 8.88-4.57 17.48-9.32 25.16-5.61-6.64-12.42-12.13-19.46-17.17z"/><path fill="#fff" d="M283.8 132.87c2.19 2.31 3.68 5.17 5.67 7.66 4.7 5.65 10.09 10.74 16.15 14.92-8.52 5.66-16.47 12.56-21.6 21.53-2.55-7.76-5.86-15.32-10.55-22.04 4.62-6.77 7.69-14.37 10.33-22.07z"/><path fill="#fff" d="M17.97 154.75c8.72-5.37 15.7-12.95 21.57-21.26 2.23 7.75 6.38 14.66 10.3 21.62-1.08 2.67-2.81 5.01-4.16 7.54-2.64 4.69-4.34 9.8-6.12 14.85-5.24-9.19-12.84-16.87-21.59-22.75z"/><path fill="#fff" d="M58.73 155.42c4.88-7.03 11.64-12.42 18.46-17.47 3.98 6.06 8.27 11.95 13.48 17.02-5.18 5.06-9.53 10.89-13.25 17.09-7.26-4.32-12.82-10.7-18.69-16.64z"/><path fill="#fff" d="M246.25 137.97c6.88 4.87 13.34 10.4 18.62 17.01-5.36 6.51-11.47 12.44-18.49 17.13-3.73-6.2-8.26-11.88-13.2-17.16 5-5.13 9.18-10.98 13.07-16.98z"/><path fill="#0199FF" d="M158.88 142.47c1.24-3.73 5.58-2.02 7.91-.43 1.14-.49 2.27-1.03 3.4-1.56 1.43.95 2.84 1.94 4.24 2.94 2.79-1.87 5.82-.67 7.45 2.03 1.55-.04 3.12-.18 4.67.04 1.04.92 1.86 2.06 2.73 3.14 1.56.07 3.22-.22 4.68.47 1.03 1 1.4 2.47 2.05 3.73 3.12.15 5.85 1.89 6.03 5.26 3.14.24 5.13 2.66 5.6 5.64 1.22.89 2.8 1.49 3.66 2.81.25 1.4.21 2.84.29 4.27 3.22.85 3.21 4 3.27 6.75 3.29 1.35 2.48 4.83 2.86 7.63 1.71 2.33 2.13 5.04.63 7.6 2.56 3.14-.08 6.98 1.14 10.47.82 2.03-.88 3.46-2.11 4.79 1.28 2.57 1.47 6.05-1.9 7.01.44 2.83.39 6.13-3 6.9.13 2.33-.04 4.68-1.57 6.55l-3.26-.02c.06 1.37.12 2.75.19 4.13-.76.65-1.51 1.3-2.26 1.96-.62.03-1.86.11-2.48.15-.11 3.54-2.78 5.82-6.21 5.98-.65 1.25-1.3 2.5-1.97 3.75-1.53.02-3.05.05-4.58.08-.79 1.38-1.59 2.74-2.45 4.07l-4.46-.39c-1.36 1.13-2.52 3.42-4.58 2.95-3.32-.89-6.12 1.64-9.4 1.72l.01-1.99c-2.67 1.82-7.24 4.81-9.52.82-2.73.8-6.64 2.11-8.23-1.22-1.42.29-2.8.72-4.24.85-1.01-.8-1.83-1.81-2.69-2.76-2.03 0-4.05.02-6.07 0-.44-1.07-.88-2.14-1.31-3.2-1.75.09-3.51.16-5.26.22-.68-1.31-1.35-2.62-2.02-3.92-1.34-.22-2.7-.28-3.99-.67-.94-1.25-1.44-2.76-2.07-4.16-1.6-.56-3.18-1.14-4.76-1.72l.2-4.29c-1.58-.6-3.16-1.21-4.74-1.8l-.43-4.88c-3.58-.39-4.4-3.78-3.78-6.81-1.33-1.11-3.55-2.07-2.93-4.2.53-2.33-.19-4.48-1.57-6.36.15-1.59.24-3.19.6-4.75-.97-1.7-1.21-3.64-1.29-5.56.74-.87 1.51-1.71 2.3-2.53-1.93-.58-2.12-2.45-2.33-4.13.82-1.04 1.61-2.12 2.39-3.2-.21-1.71-.49-3.43-.34-5.15.89-1.02 1.95-1.86 2.96-2.74.03-2.79-.47-6.15 2.95-7.05.07-1.42.07-2.86.28-4.27 1.03-1.49 2.98-2 4.12-3.36.5-1.29.82-2.64 1.36-3.91 1.29-.53 2.66-.76 4.01-1.09.23-1.41.39-2.83.79-4.19 1.7-.49 3.48-.56 5.22-.77.47-1.44.32-3.39 1.86-4.21 1.59-.65 3.38-.3 5.05-.43.59-1.19.37-3.19 1.86-3.74 1.71-.91 3.58.06 5.27.53.55-1.03.65-2.44 1.67-3.14 1.96.09 3.93.26 5.89.38 1.47-3.8 5.43-2.14 8.21-1.02z"/><path fill="#fff" d="M153.03 142.09c2.35-1.09 4.15 1.08 5.76 2.42l-1.64 3.32c-3.1.21-5.94-2.67-4.12-5.74z"/><path fill="#fff" d="M161.18 142.15c1.21-1.01 2.42-1 3.63.03 2.05 2.1.15 6.21-2.85 5.51-1.63.16-2.5-1.42-3.57-2.33 1.71.67 3.41 1.36 5.17 1.89-1.08-.79-2.18-1.55-3.29-2.29.22-.7.68-2.11.91-2.81z"/><path fill="#fff" d="M166.59 142.62c2.77-1.69 7.7-.63 6.79 3.4-.42.65-1.27 1.96-1.69 2.62l-.19-2.3-2.69 1.57c-.7-1.78-1.44-3.54-2.22-5.29z"/><path fill="#fff" d="M145.22 144.24c2.89-1.82 5.97.81 5.66 3.94-1.54.38-3.08.8-4.61 1.25-.5-1.69-2.17-3.42-1.05-5.19z"/><path fill="#fff" d="M175.46 143.13c1.52.18 3.03.43 4.53.76.92 1.5.63 3.27.59 4.93-1.61-.23-3.22-.44-4.83-.64-.09-1.68-.19-3.37-.29-5.05z"/><path fill="#fff" d="M137.32 146.37c1.39 0 2.81-.18 4.18.14 1.7 1.05 1.55 3.24 1.94 4.95l-5.83.08c-.09-1.73-.19-3.45-.29-5.17z"/><path fill="#fff" d="M182.67 145.69c1.64.48 3.84.08 4.9 1.73 1.66 1.21.09 2.95-.24 4.43-1.61-.18-3.22-.34-4.84-.45.09-1.9.14-3.81.18-5.71z"/><path fill="#fff" d="M130.35 150.8c2.07-.97 4.69-1.03 6.14 1.03-.04.86-.13 2.58-.18 3.44-1.58.15-3.16.26-4.75.34-.43-1.6-.9-3.19-1.21-4.81z"/><path fill="#fff" d="M189.27 149.43c1.68.03 3.37.1 5.06.18.13 1.7.26 3.41.35 5.11-1.66-.13-3.33-.26-4.99-.37-.13-1.65-.27-3.28-.42-4.92z"/><path fill="#fff" d="M160.61 154.77l3.06-.12-.06 2.88-3.28-.09.28-2.67z"/><path fill="#fff" d="M195.8 153.53c2.45.05 4.58 1.17 5.78 3.34-.56 1.04-1.11 2.08-1.66 3.13-1.52-.53-3.04-1.08-4.55-1.63.1-1.62.24-3.23.43-4.84z"/><path fill="#fff" d="M123.72 155.71c1.86-.24 4.03-1.74 5.67-.19 1.09.96.86 2.59 1.19 3.88-1.41.38-2.82.77-4.23 1.16-.91-1.6-1.78-3.22-2.63-4.85z"/><path fill="#fff" d="M151.32 154.23c2.97.83 3.32 4.21 5.33 6.09 1.16.96 2.48 1.69 3.75 2.51.02-.97.07-2.91.1-3.88.78-.07 2.34-.2 3.12-.26.03 1.38.06 2.76.1 4.14 3.71-1.26 5.99-4.32 7.51-7.78 2.03-1.9 2.23 1.07 1.41 2.43-1.07 4.17-5.03 6.48-8.87 7.67-.02 1.34-.04 2.68-.05 4.02 1.66-.09 3.31-.19 4.97-.29l-.15-4.41c2.34-.08 4.68-.13 7.03-.18.04 1.53.07 3.06.12 4.59l2.86-.15c-.03-2.28-.04-4.56-.01-6.84.68.19 2.03.58 2.71.78.25 2.92.13 5.85.15 8.77l-5.76.09-.03 4.7c-2.35-.03-4.7-.06-7.04-.13.03-1.51.07-3.01.11-4.52l-4.94.06c-.02 1.56-.04 3.13-.07 4.7-1.06-.02-2.13-.03-3.19-.04.01-1.54.02-3.09.04-4.63-1.89.04-3.78.06-5.67.09-.02 2.12-.04 4.23-.07 6.35-2.04-.22-4.07-.44-6.08-.83.77-.2 2.31-.59 3.08-.78l-.04-7.24c2.91-.06 5.82-.1 8.73-.11.01-1.31.01-2.62.01-3.93-5-1.38-9.27-5.51-9.16-10.99z"/><path fill="#fff" d="M175.33 156.49c1.04.01 2.08.03 3.12.06.05 1.03.1 2.05.16 3.09-1.1.04-2.19.07-3.28.12v-3.27z"/><path fill="#fff" d="M180.35 155.95c1.11.52 2.59.66 3.12 1.98-.19 1.75-1.96 1.73-3.23 2.17.01-1.39.05-2.77.11-4.15z"/><path fill="#fff" d="M200.68 159.77c2.48-1.76 6.13.23 5.91 3.3-.8 1.1-1.65 2.16-2.54 3.19-1.43-1.89-4.38-3.73-3.37-6.49z"/><path fill="#fff" d="M118.86 160.94c1-.32 2-.65 3-.96.7.18 2.08.54 2.77.73.36 2.03.59 4.12-.71 5.92-.13-.58-.37-1.73-.49-2.3l-2.76 1.51c-.63-1.62-1.24-3.25-1.81-4.9z"/><path fill="#fff" d="M249.81 178.1c7.55-4.37 13.2-11.06 19.39-17.03 4.83 7.3 7.61 15.75 9.54 24.22-5.71 6.87-12.47 13.2-20.7 16.89-2.06-8.25-4.61-16.38-8.23-24.08z"/><path fill="#fff" d="M45.17 186.07c1.47-8.86 4.49-17.48 9.54-24.95 5.72 6.45 11.92 12.52 19.25 17.14-3.86 7.73-6.21 16.09-7.86 24.54-8.05-4.09-14.98-9.98-20.93-16.73z"/><path fill="#fff" d="M205.46 165.7c.69-.35 2.06-1.03 2.75-1.37 2.27 1.64 4.49 5.98.25 7.08 1.65.44 3.38.59 5 1.16.89 1.12.64 2.74 1 4.08-1.5.22-2.99.49-4.49.6-1.5-2.35-1.37-6.25-4.93-6.44l3.66.09c-1.02-.55-2.05-1.1-3.07-1.64-.04-.89-.12-2.67-.17-3.56z"/><path fill="#fff" d="M114.21 167.16c.79-.48 2.35-1.43 3.13-1.9 2.81 1.38 3.78 4.09 2.8 7.05l-1.49-1.83-2.92 1.33c-.5-1.56-1.02-3.1-1.52-4.65z"/><path fill="#0199FF" d="M171.26 166.39l2.23.08c.02.54.06 1.61.09 2.15-.61.07-1.83.23-2.44.31l.12-2.54z"/><path fill="#0199FF" d="M171.32 171.35c.53.05 1.61.16 2.14.22.05.53.15 1.59.19 2.12l-2.52.15.19-2.49z"/><path fill="#fff" d="M110.86 173.62c1.33-.18 2.76-1.44 4.05-.55 2.02.65 1.99 3.06 2.59 4.74-.55-.1-1.66-.29-2.22-.38l-2.55 1.3c-.64-1.7-1.26-3.4-1.87-5.11z"/><path fill="#fff" d="M144.9 177.15c.9-.34 1.82-.64 2.75-.9.23 3.75.38 7.51.54 11.27l4.05-.05c-.1-2.23-.23-4.46-.37-6.68 3.79 0 7.59-.22 11.38.07.22.59.66 1.78.88 2.38-3 .09-6 .11-8.99.11.01 3.63.01 7.27.07 10.91 1.76.02 3.53.03 5.29.07l-.02-5.65 3.19-.04c.05 2.08.12 4.15.27 6.23 2.36-1.23 1.55-3.99 1.8-6.13.73 0 2.19-.02 2.92-.03-.02 1.7-.02 3.41-.03 5.11l1.71-.04-.08-5.14c.72.02 2.16.06 2.88.07.27 2.18-.27 4.89 2.01 6.21.27-3.51.18-7.03.15-10.55l3.2.18c-.04 4.23-.04 8.46.02 12.69-11.21.19-22.43.16-33.64.22.17-6.77-.49-13.56.02-20.31z"/><path fill="#fff" d="M180.31 176.34c1.04.03 2.09.06 3.15.1.01 5.32.02 10.64-.01 15.96-1.05.03-2.1.06-3.14.1-.02-5.39-.04-10.77 0-16.16z"/><path fill="#fff" d="M156.45 178.95c.68-.84 3.19-.89 3 .55-.69.83-3.23.92-3-.55z"/><path fill="#fff" d="M212.74 177.75c1.27.55 2.5 1.15 3.72 1.81.38 1.37.67 2.76.87 4.18-1.99-.02-3.97-.07-5.95-.11.53-1.94 1.01-3.9 1.36-5.88z"/><path fill="#fff" d="M108.26 181.88c.81-.93 1.66-1.83 2.55-2.7 1.18.86 2.41 1.68 3.47 2.69.26 1.23.16 2.49.16 3.74-1.63-.1-3.27-.18-4.9-.24-.47-1.15-.89-2.31-1.28-3.49z"/><path fill="#fff" d="M166.71 181.99c1.06-.98 2.33-1.66 3.81-1.62.17.79.53 2.37.71 3.16l-2.21-1.16c-.29 2.39.29 5.91-3.3 5.43-.05-.95-.1-1.9-.14-2.84 1.09-.61 2.17-1.25 3.24-1.91l-2.11-1.06z"/><path fill="#fff" d="M175.34 180.46c1.03.02 2.06.04 3.09.07.05.57.17 1.71.23 2.28l-3.42.19c.03-.64.08-1.91.1-2.54z"/><path fill="#fff" d="M79.98 181.94c4.5 2.38 9.19 4.34 13.92 6.19-.93 7.68-.06 15.37 1.07 22.97-7.54-.72-14.89-2.62-22.02-5.11.84-8.36 3.42-16.49 7.03-24.05z"/><path fill="#fff" d="M231.64 187.65c4.09-1.89 8.15-3.85 12.19-5.85 3.31 7.71 6.47 15.65 7.21 24.1-6.66 2.27-13.46 4.15-20.44 5.11 1.65-7.67 1.95-15.57 1.04-23.36z"/><path fill="#fff" d="M169.91 184.5c1.16-.03 2.32-.05 3.48-.07-.07 1.11-.14 2.21-.22 3.31-2.23.17-3.04-1.28-3.26-3.24z"/><path fill="#fff" d="M185.69 184.27c2.27-.01 4.54-.03 6.81-.03.04 4.26.03 8.52.06 12.78-2.94.13-5.89.21-8.83.27l.03-3.46c1.77-.02 3.54-.05 5.32-.08.05-2.11.08-4.22.12-6.33l-3.63-.58.12-2.57z"/><path fill="#fff" d="M194.63 189.71c.88-1.71 1.97-3.31 3.26-4.74 1.29 1.2 2.54 2.45 3.75 3.73-.51 3.11-1.02 6.34-2.73 9.06-3.32 5.78-9.28 9.26-14.9 12.48-6.24.12-12.59 3.5-15.74 8.94-1.89 3.12.43 6.41 1.33 9.42-3.46 0-4.89-3.67-5.2-6.54.35-5 3.68-9.27 7.77-11.9 5.69-4 13.36-4.5 18.2-9.79 3.22-.55 6.55-1.87 8-5.04 1.02-2.05 2.55-5.77-.17-7.08-.89.37-2.68 1.1-3.57 1.46z"/><path fill="#fff" d="M213.55 185.06c1.57.67 3.44.88 4.73 2.1.29 1.42.45 2.86.49 4.32-1.76-.03-3.52-.05-5.28-.05l.06-6.37z"/><path fill="#fff" d="M124.54 195.44c-.6-2.69-1.19-6.49 1.48-8.27 2.09-.79 3 1.47 4.19 2.68-1.22-.25-2.44-.51-3.65-.78-2.26 3.6-.42 8.31 2.87 10.57 1.7 1.08 3.76 1.4 5.51 2.38 6.4 5.37 16.03 4.83 21.83 11.18 4 3.75 6.14 11.2 1.45 15.23l-1.67-.29c.51-2.63 2.72-5.33 1.23-8-2.83-5.85-9.42-8.73-15.56-9.56-7.41-2.57-14.72-7.6-17.68-15.14z"/><path fill="#fff" d="M132.6 187.64c3.4-.04 6.8-.07 10.2-.09.05 3.32.06 6.63.05 9.95-3.43.04-6.85.06-10.27.09.02-3.32.02-6.63.02-9.95z"/><path fill="#fff" d="M108.15 188.16c1.29-1.04 3.19-.83 4.03.66 1.36 1.43.13 3.43-.04 5.08-1.69-.53-3.36-1.09-5.03-1.64.13-1.43.48-2.8 1.04-4.1z"/><path fill="#fff" d="M122.55 190.44c1.41.19 1.47 3.99.02 4.17-.81-1.18-.75-2.98-.02-4.17z"/><path fill="#0199FF" d="M136.14 190.68l3.54.09c0 1.21 0 2.43.01 3.65-1.19.02-2.37.04-3.55.07v-3.81z"/><path fill="#0199FF" d="M148.41 191.02c1.09-.3 2.21-.45 3.31-.66-.01 1.34-.02 2.68-.04 4.03l-4-.14c.19-.81.55-2.42.73-3.23z"/><path fill="#fff" d="M213.55 194.42c.37-.59 1.11-1.77 1.48-2.35 1.17.78 2.42 1.49 3.46 2.46 1.2 1.53.17 3.49.09 5.2-1.64-.66-3.3-1.24-5.02-1.6l-.01-3.71z"/><path fill="#fff" d="M107.16 196.16c2.81-2.44 5.51.35 6.26 3.17-1.99.5-3.97 1.01-5.98 1.47-.22-1.53-1.31-3.17-.28-4.64z"/><path fill="#fff" d="M122.38 195.3c1.73 1.38 2.38 3.38 2.11 5.53 2.47 3.94 5.54 7.52 9.23 10.36 2.26 1.81 4.86 3.43 6.06 6.21-4.12-1-6.48-4.89-10.29-6.47l.37-.22-.25-.36c-1.31-2.06-2.93-3.93-4.91-5.39-1.09-3.14-2.77-6.2-2.32-9.66z"/><path fill="#fff" d="M201.07 198.37l1.99.02c-3.28 6.25-7.53 12.11-13.06 16.56-1.05.91-3.38 2.42-3.95.1 5.82-4.71 11.98-9.61 15.02-16.68z"/><path fill="#fff" d="M214.99 200.03c2.15.76 4.72 2.08 3.87 4.82-.08 3.65-3.96.86-5.56-.25.58-1.52 1.15-3.04 1.69-4.57z"/><path fill="#fff" d="M107.17 204.19c1.08-.69 2.45-2.41 3.77-1.18 1.78.68 1.98 2.79 2.79 4.27-1.97.37-3.93.84-5.91 1.1-.27-1.39-.64-2.77-.65-4.19z"/><path fill="#fff" d="M200.09 207.85c-2.49-.25.29-4.5 1.6-4.76.4 1.68-.66 3.42-1.6 4.76z"/><path fill="#fff" d="M122.04 202.46c.67.62 2 1.88 2.66 2.5 1.27 2.1 2.73 4.15 4.91 5.39l-.4.25.28.33c2.6 3.49 6.82 5.44 9.02 9.27-3.86-.42-6.47-3.58-8.64-6.48-.37.38-.74.78-1.1 1.18 2.99 2.62 7.06 4.85 7.73 9.16-2.24-1.62-4.3-3.48-6.25-5.44-.76-1.22-1.11-3.11-2.6-3.62-.17.19-.52.55-.69.73-.2 1.73 1.79 2.79 3.29 2.89.91 3.08 3.89 4.87 5.29 7.7-1.46-.6-2.93-1.26-3.94-2.52-2.7-2.92-4.78-6.33-7.12-9.53.98-.25 1.96-.5 2.94-.77l1.99-.49c-3.49-2.64-6.18-6.31-7.37-10.55z"/><path fill="#fff" d="M195.27 204.62z"/><path fill="#0199FF" d="M124.7 204.96c1.98 1.46 3.6 3.33 4.91 5.39-2.18-1.24-3.64-3.29-4.91-5.39z"/><path fill="#fff" d="M194.98 205.14l.29-.52-.29.52z"/><path fill="#fff" d="M129.06 204.67c4.16 2.59 8.14 5.47 12.51 7.72l-1.61 1.85c-4.33-2.21-8.33-5.39-10.9-9.57z"/><path fill="#fff" d="M183.99 212.02c3.41-2.65 7.03-5.16 10.99-6.88-1.98 3.66-5.57 6.14-9.06 8.24-.48-.34-1.44-1.02-1.93-1.36z"/><path fill="#fff" d="M212.51 207.53c3.63-.3 5.96 2.93 4.77 6.29-1.61-.19-3.21-.37-4.81-.54-.01-1.92.01-3.84.04-5.75z"/><path fill="#fff" d="M197.1 208.6c.46.49.92 1 1.37 1.5-3.16 2.97-5.4 7.17-9.42 9.07-2.69.56-.23-2.17.45-2.75 2.75-2.38 5.7-4.64 7.6-7.82z"/><path fill="#fff" d="M108.56 211.32l2.45-2.08c2.57.94 4.16 2.91 4.41 5.65-.61-.13-1.84-.37-2.46-.49l-2.21 1.29c-.74-1.45-1.46-2.91-2.19-4.37z"/><path fill="#0199FF" d="M129.61 210.35l.25.36-.37.22-.28-.33.4-.25z"/><path fill="#fff" d="M127.42 213.5z"/><path fill="#fff" d="M142.87 212c1.54 1.1 3.09 2.32 1.37 4.16l-.6 2.19c-1.72.24-2.59-1.28-3.51-2.42.4-.29 1.19-.88 1.59-1.18l1.15-2.75z"/><path fill="#fff" d="M181.55 212.1c2.83-1.03 1.66 3.39-.52 2.91-1.7-.33-.7-2.64.52-2.91z"/><path fill="#fff" d="M146.53 213.2c1.18-.79 3.29.25 3.19 1.73-.7 2.1-4.17-.09-3.19-1.73z"/><path fill="#fff" d="M176.41 213.03c.84-1.42 3.4-.19 2.05 1.24-.82 1.46-3.37.17-2.05-1.24z"/><path fill="#fff" d="M181.17 216.88c.96-1.37 2.61-2.06 4.01-2.93.85 2.39-2.01 4.86-4.01 2.93z"/><path fill="#0199FF" d="M126.96 215.73c.17-.18.52-.54.69-.73 1.49.51 1.84 2.4 2.6 3.62-1.5-.1-3.49-1.16-3.29-2.89z"/><path fill="#fff" d="M170.03 217.54c1.68-1.14 3.43-2.18 5.28-3.01-.66 1.68-1.41 3.33-2.18 4.96-.77-.49-2.32-1.47-3.1-1.95z"/><path fill="#fff" d="M209.3 219.57c.68-1.44-.79-4.98 1.74-4.79 2.9-.9 3.8 2.89 4.18 4.99-1.97-.03-3.95-.09-5.92-.2z"/><path fill="#fff" d="M145.32 215.48c1.75.78 3.47 1.67 5.15 2.62-.78.77-1.55 1.55-2.31 2.35-.97-1.65-1.94-3.29-2.84-4.97z"/><path fill="#fff" d="M150.08 215.35c1.81.4 3.62 1.04 4.94 2.4l-1.72 2.96c-1.15-1.74-2.25-3.51-3.22-5.36z"/><path fill="#fff" d="M175.44 217.55c1.48-1.34 3.37-2.01 5.28-2.47-1.14 1.8-2.4 3.51-3.73 5.17-.39-.68-1.16-2.03-1.55-2.7z"/><path fill="#fff" d="M111.4 218.1l2.65-1.65c2.69.61 3.94 2.71 4.31 5.29-.54-.11-1.61-.34-2.15-.46-.56.33-1.69 1-2.25 1.34-.84-1.52-1.69-3.03-2.56-4.52z"/><path fill="#fff" d="M139.03 218.53c1.15-.87 2.98.35 2.94 1.71-.58 2.34-4.31 0-2.94-1.71z"/><path fill="#fff" d="M175.95 222.64c1.64-1.55 2.76-3.98 5.05-4.65 1.75 1.61-.28 3.38-1.52 4.5-1.99 2.26-5.18.68-7.53 0 .83-1.58 2.17-2.77 3.49-3.93l.51 4.08z"/><path fill="#fff" d="M182.45 219.92c1.57-1.25 3.17-2.58 5.3-2.68-.65 1.2-1.32 2.39-2 3.58l-3.3-.9z"/><path fill="#fff" d="M143.43 218.63c3.54-.82 5.41 3.68 6.36 6.38-2.81-1.23-5.57-3.25-6.36-6.38z"/><path fill="#fff" d="M150.18 220.21c1.72-1.04 2.55 1.57 3.8 2.22-1.23.51-2.45 1.07-3.73 1.45-.6-1.25-.63-2.48-.07-3.67z"/><path fill="#fff" d="M155.21 220.5c2.01-1.2 2.59 3.28.69 3.62-1.54-.33-1.54-2.62-.69-3.62z"/><path fill="#fff" d="M168.75 219.75c2.3-2.73 3.68 4.38 1.23 3.95-2.37.42-1.36-2.7-1.23-3.95z"/><path fill="#fff" d="M136.81 220.86c1.88.98 3.27 2.52 3.75 4.65-2.39-.49-3.58-2.35-3.75-4.65z"/><path fill="#fff" d="M140.49 223.21c.65-.26 1.95-.78 2.6-1.05 1.11 1.13 2.21 2.26 3.31 3.4-.63.48-1.88 1.43-2.5 1.91-1.17-1.4-2.31-2.81-3.41-4.26z"/><path fill="#fff" d="M179.51 224.27c1.71-1.01 3.3-3.08 5.5-2.07-.25 2.1-2.03 3.44-3.29 4.96-.74-.96-1.48-1.93-2.21-2.89z"/><path fill="#fff" d="M191.61 224.27c-.72-1.32 1.88-3.21 2.33-1.35l-.27 1.39-.26.38c-.45-.1-1.35-.31-1.8-.42z"/><path fill="#fff" d="M206.25 221.71l4.21-.29c.54 1.68 1.06 3.36 1.55 5.05l-5.47.16c-.09-1.65-.17-3.28-.29-4.92z"/><path fill="#fff" d="M117.34 223.39c2.79-1.02 4.28 1.82 5.09 3.96-1.91.37-3.8.82-5.69 1.25-.71-1.76-2.36-4.69.6-5.21z"/><path fill="#fff" d="M193.67 224.31c.81-.52 2.43-1.55 3.25-2.07-2.51 3.83-5.08 9.14-10.5 8.74 1.96-2.49 4.98-3.83 6.99-6.29l.18-.16.08-.22z"/><path fill="#fff" d="M129.19 224.55l2.41-.75-1.28 1.02c2.54 2.33 6.32 3.45 8.47 5.96-4.43 1.63-6.87-3.74-9.6-6.23z"/><path fill="#fff" d="M170.52 226.54c.83-.91 1.65-1.81 2.55-2.65.76.88 1.45 1.81 2.15 2.75-1.57-.02-3.13-.05-4.7-.1z"/><path fill="#fff" d="M182.97 227.92c2.01-2.29 5.07-3.01 7.82-4.01-1.09 3.37-5.02 3.18-7.82 4.01z"/><path fill="#0199FF" d="M193.41 224.69l.26-.38-.08.22-.18.16z"/><path fill="#fff" d="M135.86 225.36c1.23-.88 3.53.82 2.72 2.23-1.23.88-3.59-.82-2.72-2.23z"/><path fill="#fff" d="M152 225.3c.92-1.24 3.27.24 2.29 1.55-.96 1.17-3.36-.19-2.29-1.55z"/><path fill="#fff" d="M139.33 225.56c1.18.91 2.31 1.89 3.4 2.91 2.16 1.04 4.25 2.21 6.3 3.46 1.05-1.47 1.84-3.63 4.02-3.5 3.41.29 6.43 2.43 9.92 2.27 3.57.17 6.61-2.12 10.07-2.55 2.06-.19 2.87 2.02 4.06 3.26 2.07-1.38 4.18-4 6.96-2.85 1.31.88 1.62 2.54 2.27 3.87-1.23-.77-2.45-1.56-3.66-2.36-2.84 2.46-4.49 6.87-8.68 7.29-1.7-.74-2.51-2.48-3.51-3.91l4.3-.27c-.7-1.85-2.2-3.68-4.4-2.74-3.93 1.26-1.59 6.22-3.42 8.99-.63-2.25-1.09-4.53-1.59-6.8l-4.64.12c-.42 2.36-.53 4.89-1.97 6.92-.58-3.07.29-7.82-3.62-8.91-1.55-.14-4.86.7-3.28 2.78l3.41.37c-.96 2.11-2.61 4.52-5.29 3.51-3.06-1.76-4.4-5.54-7.83-6.84-.22.97-.67 2.93-.89 3.91-.43-1.15-1.5-2.2-1.32-3.5.37-.48 1.1-1.43 1.46-1.91-.72-1.16-1.41-2.33-2.07-3.52z"/><path fill="#fff" d="M177.49 226.73c.62-.17 1.86-.52 2.49-.69-.3 1.33-1 2.52-1.97 3.47-1.7-.28-2.78-2.5-.52-2.78z"/><path fill="#fff" d="M145.48 226.69c1.53.37 3.06.76 4.59 1.17-.46.61-1.36 1.84-1.81 2.45-.95-1.19-1.88-2.4-2.78-3.62z"/><path fill="#fff" d="M201.61 227.73c1.44-.36 2.87-.34 4.29.07.78 1.51 1.19 3.16 1.71 4.78-2.04-.08-4.07-.16-6.11-.21 0-1.55.04-3.09.11-4.64z"/><path fill="#fff" d="M120.17 229.41c1.47-.03 2.97-.31 4.43.03 1.29.82 1.57 2.53 2.34 3.76-2.11.53-4.21 1.09-6.32 1.59-.14-1.79-.3-3.58-.45-5.38z"/><path fill="#fff" d="M197.15 232.38c1.31.5 2.7.85 3.88 1.62 1.14 1.43.42 3.35.46 5-1.71-.56-3.44-1.07-5.08-1.79.11-1.63.37-3.24.74-4.83z"/><path fill="#fff" d="M125.16 234.53c1.68.04 3.5-.55 5.12.12 1.77.82 1.28 2.99 1.61 4.55 2.62-1.71 6.98.15 5.88 3.61-1.45 1.02-3.28.78-4.94.91-.38-1.48-.79-2.94-1.2-4.41-1.68.12-3.36.21-5.04.32-.49-1.7-.99-3.4-1.43-5.1z"/><path fill="#fff" d="M161.59 234.47c1.49.12 1.51 3.89.01 4.02-.76-1.13-.8-2.9-.01-4.02z"/><path fill="#fff" d="M164.15 234.47c1.49.09 1.5 3.84.01 3.93-.82-1.08-.84-2.87-.01-3.93z"/><path fill="#fff" d="M190.28 237.5c1.79.04 3.55.36 5.26.88.07 1.45.14 2.89.2 4.34-1.67-.13-3.34-.27-5.01-.39-.14-1.61-.29-3.22-.45-4.83z"/><path fill="#020202" d="M208.15 247.21c3.91-3.06 7.34-6.66 10.99-10.03-1.65 2.9-3.62 5.62-6.16 7.81-4.94 4.31-10.03 8.48-15.51 12.07 2.61-4.2 6.99-6.71 10.68-9.85z"/><path fill="#fff" d="M138.82 243.94c-.11-2.08 2.55-2.78 4.05-1.85 1.65.78 1.6 2.83 2.26 4.29-1.77.31-3.53.66-5.29 1.03-.45-1.13-.79-2.29-1.02-3.47z"/><path fill="#fff" d="M183.23 241.37c1.69.14 3.93-.63 5.11 1.02 2.02 1.46.2 3.62-.21 5.43-2.68-1.3-4.95-3.24-4.9-6.45z"/><path fill="#fff" d="M146.05 244.5c1.44-.01 2.99-.51 4.35.12 1.1 1.13 1.74 2.6 2.59 3.92-2.05.51-4.14.88-6.24 1.17-.21-1.75-.45-3.48-.7-5.21z"/><path fill="#fff" d="M176.34 244.45c3.08-1.06 5.32.76 6.38 3.57l-1.79 2.16c-1.42-.63-2.86-1.22-4.29-1.82l-.3-3.91z"/><path fill="#fff" d="M153.1 246.61c3.35-2.37 7.82.86 6.08 4.79-1.88.34-3.7-.47-5.52-.85-.17-1.32-.36-2.63-.56-3.94z"/><path fill="#fff" d="M160.03 247.78c1.57-.44 3.4-1.86 5.02-.78 1.76.92 1.66 3.14 2.21 4.79-1.58-.04-3.19.03-4.75-.25-.92-1.2-1.67-2.5-2.48-3.76z"/><path fill="#fff" d="M169.21 245.91c1.68.24 3.55.06 5.02 1.09.65 1.49.67 3.01.07 4.56-1.61-.23-3.15-.73-4.68-1.24l-.41-4.41z"/><path fill="#020202" d="M142.04 251.93c1.87 1.7 2.16 3.86.68 5.96-.94-.56-1.87-1.15-2.8-1.73l2.12-4.23z"/><path fill="#020202" d="M145.21 260.29c.7-1.35 1.43-2.66 2.17-3.97.79.88 1.56 1.78 2.34 2.68-.65.93-1.28 1.88-2 2.75-.87-.43-1.68-.96-2.51-1.46z"/><path fill="#020202" d="M195.15 274.3c.48-5.57-.9-11.63 2.23-16.66-.71 7.2.6 15.06-3.19 21.61-2.14 3.96-7.38 5.84-11.51 4.03-1.99-1.69-.62-4.71-.84-7.01 1.83 6.21 12.68 4.13 13.31-1.97z"/><path fill="#020202" d="M169.99 273.99c3.84-4.33 1.8-10.53 4.48-15.41.46 3.33-2.08 8.07 1.62 10.09 1.39-1.88 2.22-4.13 3.74-5.92 1.14-1.17 2.4 0 3.53.5-.9.16-2.72.49-3.63.66-1.2 1.31-1.97 2.68.18 3.55 1.25-.83 2.4-1.8 3.59-2.7-1.76 3.07-3.59 7.14-7.56 7.64-.9-.33-2.69-1-3.58-1.33-2.15 2.15.15 3.33 1.84 4.55-1.8 5.36-8.94 3.71-11.68 8.17-1.99 3.28-1.83 7.3-2.35 10.98-.84 5.11-.33 10.32-1.15 15.43-.47-8.44-.59-17.23 2.09-25.33 1.34-4.85 6.64-6.63 8.88-10.88z"/><path fill="#020202" d="M137.33 277.91c.36-4.18.64-8.55 2.74-12.28-.53 4.43-2.34 9.15-.75 13.52 2.02 2.21 4.29.23 5.94-1.27 1.13-.62 4.36-.01 2.87-2.39-1.24-.19-2.48-.34-3.72-.46.75-1.93 1.66-3.8 2.65-5.61 5.14 2.67 2.34 10.7-3.03 10.93-1.38 1.51-2.5 4.19-5 3.48-1.92-1.3-1.87-3.88-1.7-5.92z"/><path fill="#020202" d="M204.13 281.09c.04-5.19.62-10.45 2.28-15.39.3 4.56-1.71 9.11-.5 13.62 1.68 1.22 2.95-.07 4.12-1.22-1.09 2.08-2.06 4.22-3.19 6.28-1.37-.65-2.94-1.5-2.71-3.29z"/><path fill="#020202" d="M114.75 279.99c1.42-4.89 5.12-9.04 9.8-11.04-.45 1.24-.93 2.46-1.42 3.69-3.15.38-5.35 2.71-7.05 5.19 1.08.7 2.16 1.4 3.25 2.1-.37 4.24-1.38 8.78-4.69 11.74-1.96 2.02-5.27 2.76-7.84 1.53-2.82-1.88-2.67-5.69-1.82-8.57 1.09-3.45 2.54-6.83 4.63-9.8-1.22 4.37-5.57 9.1-2.93 13.6 4.09 3.14 10.09.07 11.57-4.45-1.49-1.03-4.27-1.53-3.5-3.99z"/><path fill="#F6C745" d="M189.59 271.32c2.55-1.04.27 4.1-1.48 3.15-.68-1.18.65-2.45 1.48-3.15z"/><path fill="#020202" d="M125.99 278.76c1.12-1.94 1.61-4.16 2.57-6.18-.29 2.81-.71 5.71-2.06 8.24-.99 2.29-3.84 2.56-5.9 3.34 1.77-1.83 3.89-3.32 5.39-5.4z"/><path fill="#020202" d="M130.38 277.12c.72-1.82 1.66-3.53 2.63-5.23 3.46 1.87 2.02 5.99.47 8.68-1.12 2.44-4.05 2.74-6.3 3.5 2.27-1.62 4.46-3.33 6.54-5.19-.83-.44-2.5-1.32-3.34-1.76z"/><path fill="#020202" d="M154.34 277.18c.62-1.95 1.67-3.72 2.77-5.43 3.4 2.24 1.72 6.59-.02 9.37-1.27 2.01-3.85 2.22-5.91 2.88 2.24-1.62 4.43-3.3 6.53-5.09-.84-.43-2.53-1.29-3.37-1.73z"/><path fill="#020202" d="M198.11 280.21c2.22-2.04 2.52-5.21 3.65-7.85-.2 3.52-.58 7.45-3.19 10.09-1.42.98-3.17 1.26-4.79 1.74 1.38-1.41 2.93-2.61 4.33-3.98z"/><path fill="#020202" d="M203.17 296.32c.72-1.23 1.46-2.44 2.21-3.66.84.97 1.68 1.94 2.51 2.93l1.92-2.99c.5 1.14 2.4 2.05 1.62 3.46-.27 1.82-2.62 1.74-3.9 2.62 3.3 1.22 1.17 3.74-.33 5.25-.6-.9-1.24-1.77-1.74-2.71.77-1.55 1.8-2.94 2.66-4.43-2.02 2.51-3.43.48-4.95-.47z"/></svg>