<svg xmlns="http://www.w3.org/2000/svg" width="122.101mm" height="122.101mm" viewBox="0 0 122.101 122.101" shape-rendering="geometricPrecision" text-rendering="geometricPrecision" image-rendering="optimizeQuality" fill-rule="evenodd" clip-rule="evenodd"><defs><style type="text/css"><![CDATA[
    .str1 {stroke:#00A8D6;stroke-width:0.7056}
    .str0 {stroke:#0BAEDD;stroke-width:0.7056}
    .fil2 {fill:none}
    .fil0 {fill:#0BAEDD}
    .fil3 {fill:white}
    .fil1 {fill:white}
   ]]></style></defs><g id="_75083520"><ellipse id="_77310928" class="fil0" cx="62.053" cy="60.084" rx="54.958" ry="54.9"/><ellipse id="_77315488" class="fil1 str0" cx="60.723" cy="6.018" rx="4.066" ry="4.085"/><path id="_77319576" class="fil2 str0" d="M58.702 4.156c-1.083 2.737-.118 4.586 3.677 3.812"/><ellipse id="_77319688" class="fil1 str0" transform="matrix(.952 -.169 .167 .936 52.861 6.657)" rx="4.204" ry="4.297"/><path id="_77327016" class="fil2 str0" d="M50.544 5.178c-.586 2.884.688 4.536 4.288 3.109"/><ellipse id="_77327064" class="fil1 str0" transform="matrix(.942 -.219 .216 .926 45.149 8.532)" rx="4.204" ry="4.297"/><path id="_77329664" class="fil2 str0" d="M42.758 7.176c-.434 2.911.926 4.493 4.446 2.879"/><ellipse id="_77329712" class="fil1 str0" transform="matrix(.942 -.219 .216 .926 37.579 11.296)" rx="4.204" ry="4.297"/><path id="_77339640" class="fil2 str0" d="M35.188 9.941c-.433 2.911.926 4.493 4.446 2.879"/><ellipse id="_77339688" class="fil3 str0" transform="matrix(.926 -.28 .276 .91 30.483 15.373)" rx="4.204" ry="4.297"/><path id="_77342288" class="fil2 str0" d="M28.008 14.176c-.243 2.933 1.217 4.424 4.625 2.584"/><ellipse id="_77342336" class="fil3 str0" transform="matrix(.926 -.28 .276 .91 24.062 20.285)" rx="4.204" ry="4.297"/><path id="_77352264" class="fil2 str0" d="M21.587 19.088c-.243 2.933 1.217 4.424 4.625 2.584"/><ellipse id="_77352312" class="fil3 str0" transform="matrix(.926 -.28 .276 .91 18.62 26.037)" rx="4.204" ry="4.297"/><path id="_77354912" class="fil2 str0" d="M16.145 24.84c-.243 2.933 1.217 4.424 4.625 2.584"/><ellipse id="_77354960" class="fil3 str0" transform="matrix(.904 -.342 .337 .889 5.73 62.784)" rx="4.204" ry="4.297"/><path id="_77364888" class="fil2 str0" d="M3.179 61.759c-.042 2.943 1.516 4.33 4.79 2.262"/><ellipse id="_77364936" class="fil3 str0" transform="matrix(.904 -.342 .337 .889 5.923 54.824)" rx="4.204" ry="4.297"/><path id="_77371200" class="fil2 str0" d="M3.372 53.799c-.042 2.943 1.516 4.33 4.79 2.262"/><ellipse id="_77371248" class="fil3 str0" transform="matrix(.904 -.342 .337 .889 7.503 46.95)" rx="4.204" ry="4.297"/><path id="_77377520" class="fil2 str0" d="M4.953 45.924c-.042 2.943 1.516 4.33 4.79 2.262"/><ellipse id="_77373728" class="fil3 str0" transform="matrix(.925 -.281 .276 .91 10.218 39.51)" rx="4.204" ry="4.297"/><path id="_77383904" class="fil2 str0" d="M7.742 38.315c-.24 2.933 1.22 4.423 4.627 2.58"/><ellipse id="_77383952" class="fil3 str0" transform="matrix(.925 -.281 .276 .91 13.777 32.303)" rx="4.204" ry="4.297"/><path id="_77386648" class="fil2 str0" d="M11.302 31.109c-.24 2.933 1.22 4.423 4.627 2.58"/><ellipse id="_77386728" class="fil3 str0" transform="matrix(.904 -.342 .337 .889 61.998 116.951)" rx="4.204" ry="4.297"/><path id="_77396656" class="fil2 str0" d="M59.447 115.924c-.042 2.943 1.516 4.33 4.79 2.262"/><ellipse id="_77396704" class="fil3 str0" transform="matrix(.904 -.342 .337 .889 54.136 116.011)" rx="4.204" ry="4.297"/><path id="_77399304" class="fil2 str0" d="M51.585 114.986c-.042 2.943 1.516 4.33 4.79 2.262"/><ellipse id="_77399352" class="fil3 str0" transform="matrix(.904 -.342 .337 .889 46.42 114.256)" rx="4.204" ry="4.297"/><path id="_77409168" class="fil2 str0" d="M43.869 113.231c-.042 2.943 1.516 4.33 4.79 2.262"/><ellipse id="_77409216" class="fil3 str0" transform="matrix(.943 -.215 .212 .927 39.013 111.815)" rx="4.204" ry="4.297"/><path id="_77411832" class="fil2 str0" d="M36.627 110.449c-.447 2.909.905 4.497 4.433 2.9"/><ellipse id="_77411880" class="fil3 str0" transform="matrix(.943 -.215 .212 .927 31.929 108.401)" rx="4.204" ry="4.297"/><path id="_77421936" class="fil2 str0" d="M29.544 107.035c-.447 2.909.905 4.497 4.433 2.9"/><ellipse id="_77421984" class="fil3 str0" transform="matrix(.943 -.215 .212 .927 25.544 103.816)" rx="4.204" ry="4.297"/><path id="_77424480" class="fil2 str0" d="M23.158 102.45c-.447 2.909.905 4.497 4.433 2.9"/><ellipse id="_77424528" class="fil3 str0" transform="matrix(.909 -.33 .325 .893 19.678 98.456)" rx="4.204" ry="4.297"/><path id="_77434584" class="fil2 str0" d="M17.141 97.397c-.081 2.942 1.458 4.35 4.76 2.326"/><ellipse id="_77434632" class="fil3 str0" transform="matrix(.867 -.429 .422 .852 15.051 92.138)" rx="4.204" ry="4.297"/><path id="_77437120" class="fil2 str0" d="M12.412 91.365c.245 2.933 1.93 4.163 4.988 1.786"/><ellipse id="_77437168" class="fil3 str0" transform="matrix(.867 -.429 .422 .852 11.11 85.609)" rx="4.204" ry="4.297"/><path id="_77443456" class="fil2 str0" d="M8.472 84.836c.245 2.933 1.93 4.163 4.988 1.786"/><ellipse id="_77443504" class="fil3 str0" transform="matrix(.867 -.429 .422 .852 8.012 78.448)" rx="4.204" ry="4.297"/><path id="_77453536" class="fil2 str0" d="M5.373 77.675c.245 2.933 1.93 4.163 4.988 1.786"/><ellipse id="_77453584" class="fil3 str0" transform="matrix(.867 -.429 .422 .852 6.108 70.717)" rx="4.204" ry="4.297"/><path id="_77456200" class="fil2 str0" d="M3.469 69.944c.245 2.933 1.93 4.163 4.988 1.786"/><ellipse id="_77456248" class="fil1 str0" transform="matrix(-.061 -.964 -.95 .06 68.723 6.657)" rx="4.204" ry="4.297"/><path id="_77466048" class="fil2 str0" d="M70.711 8.554c-2.666 1.253-4.574.409-4.041-3.424"/><ellipse id="_77466096" class="fil1 str0" transform="matrix(.036 -.965 -.951 -.036 76.648 8.265)" rx="4.204" ry="4.297"/><path id="_77468568" class="fil2 str0" d="M78.435 10.353c-2.779.978-4.592-.054-3.675-3.813"/><ellipse id="_77468648" class="fil1 str0" transform="matrix(.075 -.963 -.949 -.074 84.204 10.896)" rx="4.204" ry="4.297"/><path id="_77478616" class="fil2 str0" d="M85.905 13.054c-2.816.866-4.586-.239-3.518-3.958"/><ellipse id="_77478664" class="fil3 str0" transform="matrix(.039 -.965 -.951 -.038 91.366 14.621)" rx="4.204" ry="4.297"/><path id="_77481168" class="fil2 str0" d="M93.148 16.713c-2.781.972-4.592-.064-3.666-3.822"/><ellipse id="_77481216" class="fil3 str0" transform="matrix(.184 -.948 -.934 -.181 97.621 19.385)" rx="4.204" ry="4.297"/><path id="_77491304" class="fil2 str0" d="M99.066 21.722c-2.896.542-4.529-.756-3.046-4.331"/><ellipse id="_77491352" class="fil3 str0" transform="matrix(.109 -.96 -.946 -.107 103.194 24.988)" rx="4.204" ry="4.297"/><path id="_77493864" class="fil2 str0" d="M104.817 27.205c-2.845.766-4.575-.401-3.376-4.08"/><ellipse id="_77493912" class="fil3 str1" transform="matrix(.261 -.93 -.916 -.256 116.655 60.984)" rx="4.204" ry="4.297"/><path id="_77504008" class="fil2 str1" d="M117.905 63.43c-2.93.304-4.453-1.122-2.683-4.564"/><ellipse id="_77504056" class="fil3 str1" transform="matrix(.246 -.934 -.92 -.242 116.261 53.224)" rx="4.204" ry="4.297"/><path id="_77510536" class="fil2 str1" d="M117.55 55.651c-2.925.35-4.47-1.052-2.754-4.522"/><ellipse id="_77510584" class="fil3 str1" transform="matrix(.329 -.909 -.895 -.323 114.48 45.45)" rx="4.204" ry="4.297"/><path id="_77513024" class="fil2 str1" d="M115.547 47.981c-2.945.088-4.358-1.447-2.34-4.749"/><ellipse id="_77513072" class="fil3 str0" transform="matrix(.082 -.963 -.948 -.081 111.566 38.31)" rx="4.204" ry="4.297"/><path id="_77523256" class="fil2 str0" d="M113.251 40.48c-2.822.845-4.584-.272-3.489-3.984"/><ellipse id="_77523304" class="fil3 str0" transform="matrix(.135 -.957 -.942 -.132 108.007 31.203)" rx="4.204" ry="4.297"/><path id="_77525840" class="fil2 str0" d="M109.571 33.462c-2.864.691-4.563-.521-3.267-4.167"/><ellipse id="_77525888" class="fil3 str0" transform="matrix(-.122 -.958 -.944 .12 70.05 116.011)" rx="4.204" ry="4.297"/><path id="_77535968" class="fil2 str0" d="M72.377 117.596c-2.424 1.673-4.445 1.152-4.548-2.716"/><ellipse id="_77536016" class="fil3 str0" transform="matrix(.107 -.96 -.946 -.105 77.779 114.188)" rx="4.204" ry="4.297"/><path id="_77538528" class="fil2 str0" d="M79.793 115.926c-2.595 1.394-4.546.652-4.218-3.203"/><ellipse id="_77538576" class="fil3 str0" transform="matrix(.152 -.954 -.94 -.149 85.28 111.149)" rx="4.204" ry="4.297"/><path id="_77548664" class="fil2 str0" d="M87.3 112.841c-2.582 1.418-4.539.695-4.248-3.164"/><ellipse id="_77548712" class="fil3 str0" transform="matrix(.03 -.966 -.951 -.03 92.228 107.341)" rx="4.204" ry="4.297"/><path id="_77551184" class="fil2 str0" d="M94.028 109.417c-2.772.996-4.592-.024-3.699-3.79"/><ellipse id="_77551232" class="fil3 str0" transform="matrix(.227 -.939 -.925 -.223 98.443 102.416)" rx="4.204" ry="4.297"/><path id="_77561248" class="fil2 str0" d="M99.779 104.816c-2.918.409-4.49-.962-2.845-4.465"/><ellipse id="_77561296" class="fil3 str0" transform="matrix(.017 -.966 -.952 -.017 103.908 96.756)" rx="4.204" ry="4.297"/><path id="_77563768" class="fil2 str0" d="M105.736 98.808c-2.758 1.034-4.592.038-3.751-3.739"/><ellipse id="_77563816" class="fil3 str0" transform="matrix(-.04 -.965 -.951 .039 108.836 90.538)" rx="4.204" ry="4.297"/><path id="_77573848" class="fil2 str0" d="M110.781 92.479c-2.693 1.194-4.582.307-3.964-3.513"/><ellipse id="_77573896" class="fil3 str1" transform="matrix(.099 -.961 -.947 -.098 112.275 83.508)" rx="4.204" ry="4.297"/><path id="_77580160" class="fil2 str1" d="M113.922 85.708c-2.837.795-4.579-.354-3.417-4.045"/><ellipse id="_77580208" class="fil3 str1" transform="matrix(.333 -.907 -.894 -.327 114.974 76.347)" rx="4.204" ry="4.297"/><path id="_77582688" class="fil2 str1" d="M116.028 78.884c-2.945.074-4.351-1.467-2.317-4.76"/><ellipse id="_77582760" class="fil3 str1" transform="matrix(.47 -.845 -.832 -.462 116.677 68.817)" rx="4.204" ry="4.297"/><path id="_77592808" class="fil2 str1" d="M117.325 71.486c-2.921-.383-4.071-2.123-1.551-5.061"/><path id="_77592856" class="fil3" d="M56.518 94.549l-2.047-1.236c7.654-8.566-7.888-19.02-13.789-16.887-33.652-15.874-14.656-33.853-13.809-22.209-7.214-5.898-5.631 13.312 6.153 11.419-.974 3.903 11.448 5.229 19.57 10.519 6.317 4.115 9.509 12.411 3.922 18.394z"/><path id="_77589808" class="fil3" d="M46.267 96.143c.677-1.022.872-1.194 1.904-1.849-3.313-3-6.493-1.531-1.904 1.849z"/><polygon id="_77598480" class="fil3" points="36.0303,91.9151 33.3248,90.5291 33.2439,92.1461 35.9956,93.9594"/><path id="_77598528" class="fil3" d="M44.401 91.314c-1.071.368-1.558.56-1.85 2.033-6.644-2.822-3.757-9.445 1.85-2.033z"/><path id="_77601680" class="fil3" d="M40.794 93.948c-1.003.142-1.13.053-1.665.901-3.311-2.721-2.036-4.641 1.665-.901z"/><path id="_77604472" class="fil3" d="M34.55 86.648c2.463.826 3.031 1.669 3.041 2.056v2.264c-1.004.121-1.943-.899-3.041-1.917v-2.402z"/><path id="_77611048" class="fil3" d="M24.561 85.678c3.16 6.853 8.241 13.584 12.327 10.969.111-.071.085-.439-.46-.688-1.944-.889-7.643-3.111-11.867-10.281z"/><path id="_77607704" class="fil3" d="M32.477 90.095l-.286 2.375c-5.434-4.357-9.121-10.065-11.377-16.031 3.486 4.959 6.611 9.638 11.663 13.657z"/><path id="_77039624" class="fil3" d="M59.771 99.954h1.042c.153 0 .278.124.278.277v4.574c0 .153-.124.277-.277.277h-1.042c-.153 0-.277-.124-.277-.277v-4.574c0-.153.124-.277.278-.277z"/><path id="_77040528" class="fil3" d="M61.559 96.489c-4.65 1.078-12.533-6.098-14.054 1.369-.336.096-.892.138-1.254-.226-6.118-6.165-11.587-.421-6.938 2.715.176-1.145-.043-2.146.32-2.609 2.518-3.211 5.229 4.562 7.986 5.648 2.223.876 6.069.347 5.071-4.122-2.65 1.371-2.877-.053-2.946-.453-.422-2.433 7.816-5.021 7.048 6.596l1.902-.406.138-4.389c.038-1.172.676-1.972 2.726-1.86v-2.264z"/><path id="_77040064" class="fil3" d="M66.581 94.549l2.047-1.236c-7.654-8.566 7.888-19.02 13.789-16.887 33.652-15.874 14.656-33.853 13.809-22.209 7.214-5.898 5.631 13.312-6.153 11.419.974 3.903-11.448 5.229-19.57 10.519-6.317 4.115-9.509 12.411-3.922 18.394z"/><path id="_77040824" class="fil3" d="M76.832 96.143c-.677-1.022-.872-1.194-1.904-1.849 3.313-3 6.493-1.531 1.904 1.849z"/><polygon id="_77630208" class="fil3" points="87.0684,91.9151 89.7739,90.5291 89.8548,92.1461 87.1031,93.9594"/><path id="_77630256" class="fil3" d="M82.305 93.948c1.003.142 1.13.053 1.665.901 3.311-2.721 2.036-4.641-1.665-.901z"/><path id="_77635688" class="fil3" d="M98.538 85.678c-3.16 6.853-8.241 13.584-12.327 10.969-.111-.071-.085-.439.46-.688 1.944-.889 7.643-3.111 11.867-10.281z"/><path id="_77633008" class="fil3" d="M90.621 90.095l.286 2.375c5.434-4.357 9.121-10.065 11.377-16.031-3.486 4.959-6.611 9.638-11.663 13.657z"/><path id="_77644016" class="fil3" d="M62.286 99.954h1.042c.153 0 .278.124.278.277v4.574c0 .153-.124.277-.278.277h-1.042c-.153 0-.278-.124-.278-.277v-4.574c0-.153.124-.277.278-.277z"/><path id="_77643832" class="fil3" d="M61.539 96.489c4.65 1.078 12.533-6.098 14.054 1.369.336.096.892.138 1.254-.226 6.118-6.165 11.587-.421 6.938 2.715-.176-1.145.043-2.146-.32-2.609-2.518-3.211-5.229 4.562-7.986 5.648-2.223.876-6.069.347-5.071-4.122 2.65 1.371 2.877-.053 2.946-.453.422-2.433-7.816-5.021-7.048 6.596l-1.902-.406-.138-4.389c-.038-1.172-.676-1.972-2.726-1.86v-2.264z"/><rect id="_77651808" class="fil3" x="42.551" y="39.755" width="3.422" height="21.714"/><g id="_44757456"><path id="_77443672" class="fil3" d="M43.858 79.5c-.972.679-1.107.863-1.52 1.974-3.829-2.03-3.841-6.896 1.52-1.974z"/><path id="_77440360" class="fil3" d="M41.811 85.978c-.715-1.702-.048-2.894 1.711-1.964l3.469 3.742c1.241 2.307.063 2.902-1.757 1.709l-3.422-3.488z"/><path id="_77442672" class="fil3" d="M42.644 82.652c-1.259.463-1.325.499-1.896 1.709-5.158-3.068-2.889-5.815 1.896-1.709z"/><path id="_77447208" class="fil3" d="M40.539 86.071c-1.055.194-1.434.361-2.301.993-3.774-2.095-1.845-6.622 2.301-.993z"/><path id="_79088320" class="fil3" d="M33.568 89.275c-2.213-.11-10.497-9.632-13.355-16.901 4.011 5.151 8.042 10.17 13.355 13.955v2.946z"/><path id="_77446208" class="fil3" d="M18.826 64.519c4.074 8.367 9.047 13.677 16.418 18.757v2.356h-1.434c-9.23-8.981-13.575-11.909-14.984-21.113z"/><path id="_77816304" class="fil3" d="M35.243 82.377c-9.014-7.521-15.448-13.691-16.648-22.826 4.113 8.999 8.909 14.464 18.245 21.184 0 1.73.13 1.538-1.597 1.643z"/><path id="_77452080" class="fil3" d="M20.998 51.462c-3.929 9.395 4.227 18.512 17.632 25.529.414 1.788.579 2.257-1.605 2.201-7.738-3.908-23.404-20.334-16.028-27.73z"/><path id="_77196488" class="fil3" d="M89.531 89.275c2.213-.11 10.497-9.632 13.355-16.901-4.011 5.151-8.042 10.17-13.355 13.955v2.946z"/><path id="_77918328" class="fil3" d="M104.273 64.519c-4.074 8.367-9.047 13.677-16.418 18.757v2.356h1.434c9.23-8.981 13.575-11.909 14.984-21.113z"/><path id="_77315336" class="fil3" d="M87.856 82.377c9.014-7.521 15.448-13.691 16.648-22.826-4.113 8.999-8.909 14.464-18.245 21.184 0 1.73-.13 1.538 1.597 1.643z"/><path id="_77817304" class="fil3" d="M102.101 51.462c3.929 9.395-4.227 18.512-17.632 25.529-.414 1.788-.579 2.257 1.605 2.201 7.738-3.908 23.404-20.334 16.028-27.73z"/><path id="_77840704" class="fil3" d="M40.886 51.12h-11.1v10.811h11.1v-10.811zm-7.307 3.511h3.792v3.881h-3.792v-3.881z"/><rect id="_77813768" class="fil3" x="42.551" y="58.143" width="35.149" height="3.326"/><rect id="_77819352" class="fil3" x="85.238" y="47.794" width="6.845" height="3.095"/><rect id="_77444672" class="fil3" x="83.342" y="58.097" width="8.741" height="3.373"/><rect id="_77818768" class="fil3" x="88.661" y="47.794" width="3.422" height="13.675"/></g><g id="_77838256"><rect id="_77388720" class="fil3" x="79.226" y="18.596" width="3.284" height="3.419"/><rect id="_67202064" class="fil3" x="74.401" y="18.634" width="3.246" height="3.371"/><polygon id="_67182192" class="fil3" points="80.5673,24.6941 77.4486,24.6941 77.451,31.5825 74.8366,31.5785 74.8405,26.9308 67.4039,26.9257 67.4007,31.6579 62.6256,31.6524 49.8267,31.6598 49.8277,39.8293 47.3927,39.8193 47.3958,41.5085 53.3311,41.5084 53.2537,34.5489 62.5802,34.5457 67.4018,34.5298 67.4007,39.2557 74.781,39.2496 74.7759,34.4877 80.5557,34.4842"/><rect id="_77305736" class="fil3" x="58.972" y="21.09" width="3.477" height="18.435"/><rect id="_77714896" class="fil3" x="58.923" y="16.655" width="3.422" height="3.234"/><rect id="_77715232" class="fil0" x="70.069" y="29.083" width="2.428" height="2.541"/><rect id="_67179600" class="fil0" x="70.058" y="34.533" width="2.521" height="2.323"/><path id="_25846928" class="fil3" d="M72.173 16.785h-2.682c-1.404 11.508-17.188 10.001-17.112 0h-3.034c.863 13.951 21.132 15.155 22.828 0z"/><path id="_77326000" class="fil3" d="M52.886 89.957c-.919-6.473 3.286-5.848 2.523-.121-.003.022-1.523.447-2.276.329-.294-.046-.193.176-.247-.208z"/><path id="_25846856" class="fil3" d="M53.373 92.931l-3.746.323c-.116-5.564 3.138-2.513 3.746-.323z"/><path id="_44663320" class="fil3" d="M51.893 88.658c-1.315-.327-2.005.062-2.867 1.732-3.386-5.598-.037-8.499 2.867-1.732z"/><path id="_77442208" class="fil3" d="M53.836 83.507c-1.788.647-1.485 1.024-1.942 2.818-5.059-4.43-3.975-8.383 1.942-2.818z"/><path id="_67201008" class="fil3" d="M47.939 79.141c-6.527-3.447-3.737 1.552-.301 2.657-.443-1.466-.448-1.794.301-2.657z"/><path id="_67202856" class="fil3" d="M46.841 86.129c-4.732-4.148-4.399-7.655 1.804-2.391-1.476.781-1.487.755-1.804 2.391z"/><path id="_77836456" class="fil3" d="M70.213 89.957c.919-6.473-3.286-5.848-2.523-.121.003.022 1.523.447 2.276.329.294-.046.193.176.247-.208z"/><path id="_77835808" class="fil3" d="M69.725 92.931l3.746.323c.116-5.564-3.138-2.513-3.746-.323z"/><path id="_77835232" class="fil3" d="M71.205 88.658c1.315-.327 2.005.062 2.867 1.732 3.386-5.598.037-8.499-2.867-1.732z"/><path id="_77834584" class="fil3" d="M69.263 83.507c1.788.647 1.485 1.024 1.942 2.818 5.059-4.43 3.975-8.383-1.942-2.818z"/><path id="_77445672" class="fil3" d="M75.159 79.141c6.527-3.447 3.737 1.552.301 2.657.443-1.466.448-1.794-.301-2.657z"/><path id="_77922288" class="fil3" d="M78.698 91.314c1.071.368 1.558.56 1.85 2.033 6.645-2.822 3.757-9.445-1.85-2.033z"/><path id="_77595224" class="fil3" d="M76.257 86.129c4.732-4.148 4.399-7.655-1.804-2.391 1.476.781 1.487.755 1.804 2.391z"/><path id="_78830240" class="fil3" d="M79.24 79.5c.972.679 1.107.863 1.52 1.974 3.829-2.03 3.841-6.896-1.52-1.974z"/><path id="_77597272" class="fil3" d="M81.287 85.978c.715-1.702.048-2.894-1.711-1.964l-3.469 3.742c-1.241 2.307-.063 2.902 1.757 1.709l3.422-3.488z"/><path id="_78468736" class="fil3" d="M80.455 82.652c1.259.463 1.325.499 1.896 1.709 5.158-3.068 2.889-5.815-1.896-1.709z"/><path id="_65852776" class="fil3" d="M82.559 86.071c1.055.194 1.434.361 2.301.993 3.774-2.095 1.845-6.622-2.301-.993z"/><path id="_77297208" class="fil3" d="M88.548 86.648c-2.463.826-3.031 1.669-3.041 2.056v2.264c1.004.121 1.943-.899 3.041-1.917v-2.402z"/><rect id="_77447672" class="fil3" x="79.272" y="39.848" width="3.381" height="16.683"/><rect id="_77446672" class="fil3" x="74.185" y="47.979" width="3.515" height="13.49"/><rect id="_77305208" class="fil3" x="69.005" y="52.507" width="3.469" height="7.069"/><rect id="_77823736" class="fil3" x="58.995" y="52.507" width="3.469" height="7.069"/><rect id="_77840128" class="fil3" x="64.1" y="52.507" width="3.469" height="7.069"/><rect id="_77819864" class="fil3" x="68.913" y="47.84" width="3.515" height="3.419"/><rect id="_77741072" class="fil3" x="64.108" y="47.84" width="3.515" height="3.419"/><rect id="_77820448" class="fil3" x="74.218" y="43.728" width="3.515" height="2.931"/><rect id="_77821544" class="fil3" x="66.41" y="43.798" width="3.515" height="2.861"/><rect id="_77820960" class="fil3" x="50.228" y="43.998" width="12.089" height="2.861"/><rect id="_77842192" class="fil3" x="50.193" y="43.998" width="3.134" height="15.901"/><rect id="_77448208" class="fil3" x="44.586" y="51.24" width="7.52" height="3.419"/><rect id="_77843416" class="fil3" x="53.651" y="41.94" width="4.962" height="1.118"/></g></g></svg>